<svg xmlns="http://www.w3.org/2000/svg" viewBox="0 0 1920 1005"><defs><clipPath id="a"><path d="M936.514 196.296c-3.949 7.107-6.265 15.61-2.711 25.085 13.029 5.527 38.06 0 39.245-13.424-2.626-9.31-8.108-24.295-36.534-11.66z" fill="#fff"/></clipPath><clipPath id="b"><path d="M860.117 217.21c-5.118 6.894-5.385 17.655-.981 21.116 5.922 7.896 25.329 7.498 35.199-4.741.79-14.214-15.084-28.013-34.218-16.375z" fill="#fff"/></clipPath></defs><path d="M657.752 696.14c-.686-.505-1.57.804-1.57.804s-.885 1.31-.302 1.74c.584.428 1.57-.806 1.57-.806s.988-1.233.302-1.739zM665.464 705.85a1.452 1.452 0 00-2.078-.785 1.564 1.564 0 101.271 2.858 1.455 1.455 0 00.807-2.073zM668.053 718.65a1.481 1.481 0 00-1.59-1.55s-1.578.088-1.569 1.576c.012 1.487 1.591 1.55 1.591 1.55a1.483 1.483 0 001.568-1.575zM666.262 731.442a1.496 1.496 0 00-1.098-1.933 1.565 1.565 0 10-.846 3.013 1.497 1.497 0 001.944-1.08zM661.296 743.318a1.496 1.496 0 00-.594-2.143 1.565 1.565 0 10-1.553 2.717 1.495 1.495 0 002.147-.574zM653.874 753.713a1.523 1.523 0 00-.222-2.212 1.565 1.565 0 10-1.993 2.412 1.524 1.524 0 002.215-.2zM645.524 763.15a1.58 1.58 0 10-2.222.082 1.54 1.54 0 002.222-.082zM637.182 772.407a1.557 1.557 0 00-.181-2.215 1.565 1.565 0 10-2.037 2.376 1.56 1.56 0 002.218-.161zM629.714 782.191a1.577 1.577 0 00-.464-2.173 1.565 1.565 0 10-1.715 2.617 1.579 1.579 0 002.18-.444zM624.126 792.984a1.589 1.589 0 00-.914-2.026 1.565 1.565 0 10-1.12 2.922 1.588 1.588 0 002.034-.896zM621.04 804.738a1.583 1.583 0 00-1.324-1.786 1.564 1.564 0 10-.475 3.093 1.582 1.582 0 001.798-1.307zM620.319 816.929a1.576 1.576 0 00-1.624-1.518 1.565 1.565 0 10.09 3.127 1.575 1.575 0 001.534-1.609zM621.628 829.126a1.571 1.571 0 00-1.835-1.257 1.567 1.567 0 10.563 3.082 1.57 1.57 0 001.272-1.825zM624.639 841.054a1.567 1.567 0 00-1.983-1.006 1.565 1.565 0 10.959 2.98 1.567 1.567 0 001.024-1.974zM629.108 852.538a1.565 1.565 0 00-2.087-.765 1.565 1.565 0 101.303 2.846 1.565 1.565 0 00.784-2.08zM634.895 863.411a1.568 1.568 0 00-2.164-.506 1.565 1.565 0 101.638 2.666 1.568 1.568 0 00.526-2.16zM642.014 873.432a1.571 1.571 0 00-2.213-.207 1.565 1.565 0 101.985 2.419 1.572 1.572 0 00.228-2.212zM650.49 882.284a1.575 1.575 0 00-2.217.14 1.563 1.563 0 102.335 2.079 1.576 1.576 0 00-.118-2.22zM660.289 889.579a1.58 1.58 0 00-2.158.53 1.564 1.564 0 102.667 1.633 1.58 1.58 0 00-.51-2.163zM671.157 894.182a1.405 1.405 0 00-1.402.542 2.128 2.128 0 00-.365.726 1.853 1.853 0 00.018.814 1.637 1.637 0 002.84.409 1.816 1.816 0 00.24-.779 2.178 2.178 0 00-.15-.798 1.398 1.398 0 00-1.181-.914zM681.545 890.92a1.643 1.643 0 00-.266 2.213 1.457 1.457 0 002.199.286 1.474 1.474 0 00.266-2.212 1.623 1.623 0 00-2.199-.286zM690.479 882.482a1.552 1.552 0 00.035 2.223 1.565 1.565 0 102.188-2.237 1.551 1.551 0 00-2.223.014zM699.019 873.407a1.58 1.58 0 102.221-.092 1.547 1.547 0 00-2.221.092zM707.377 864.111a1.58 1.58 0 102.22-.115 1.542 1.542 0 00-2.22.115zM715.768 854.796a1.58 1.58 0 102.221-.087 1.538 1.538 0 00-2.221.087zM724.413 845.663a1.533 1.533 0 00.026 2.223 1.565 1.565 0 102.197-2.228 1.533 1.533 0 00-2.223.005zM733.53 836.942a1.529 1.529 0 00-.115 2.221 1.567 1.567 0 102.335-2.09 1.528 1.528 0 00-2.22-.131zM743.311 828.91a1.523 1.523 0 00-.31 2.2 1.565 1.565 0 102.508-1.87 1.523 1.523 0 00-2.198-.33zM753.889 821.894a1.519 1.519 0 00-.56 2.152 1.565 1.565 0 102.706-1.573 1.518 1.518 0 00-2.146-.579zM765.298 816.258a1.515 1.515 0 00-.851 2.053 1.564 1.564 0 102.896-1.182 1.515 1.515 0 00-2.045-.871zM777.388 812.29a1.516 1.516 0 00-1.127 1.914 1.563 1.563 0 103.03-.767 1.516 1.516 0 00-1.903-1.147zM789.897 810.006a1.517 1.517 0 00-1.374 1.747 1.564 1.564 0 103.108-.356 1.517 1.517 0 00-1.734-1.39zM802.599 809.38a1.519 1.519 0 00-1.59 1.555 1.567 1.567 0 103.132.047 1.519 1.519 0 00-1.542-1.602zM815.27 810.381a1.518 1.518 0 00-1.772 1.341 1.565 1.565 0 103.097.445 1.518 1.518 0 00-1.324-1.786zM827.713 812.988a1.518 1.518 0 00-1.932 1.102 1.566 1.566 0 103.019.838 1.518 1.518 0 00-1.087-1.94zM839.72 817.186a1.517 1.517 0 00-2.058.84 1.565 1.565 0 102.88 1.226 1.517 1.517 0 00-.821-2.066zM851.06 822.955a1.515 1.515 0 00-2.154.551 1.564 1.564 0 102.683 1.607 1.515 1.515 0 00-.53-2.158zM860.892 829.77c-.632-.505-1.605.738-1.605.738s-.974 1.244-.37 1.728 1.605-.739 1.605-.739 1-1.222.37-1.727zM1148.755 863.958c-.28.755 1.205 1.29 1.205 1.29s1.485.537 1.755-.19-1.205-1.292-1.205-1.292-1.475-.564-1.755.192zM1153.702 852.887a1.523 1.523 0 00.653 2.145 1.591 1.591 0 001.487-2.814 1.522 1.522 0 00-2.14.669zM1160.665 841.938a1.517 1.517 0 00.29 2.224 1.591 1.591 0 001.93-2.53 1.516 1.516 0 00-2.22.306zM1169.548 832.413a1.51 1.51 0 00-.165 2.236 1.591 1.591 0 002.401-2.088 1.509 1.509 0 00-2.236-.148zM1180.373 825.067a1.5 1.5 0 00-.709 2.126 1.591 1.591 0 002.841-1.433 1.501 1.501 0 00-2.132-.693zM1192.766 820.784a1.5 1.5 0 00-1.25 1.861 1.591 1.591 0 003.12-.626 1.5 1.5 0 00-1.87-1.235zM1205.883 820.05a1.494 1.494 0 00-1.73 1.425 1.591 1.591 0 003.168.294 1.493 1.493 0 00-1.438-1.72zM1218.64 823.446a1.484 1.484 0 00-2.11.758 1.591 1.591 0 002.883 1.346 1.483 1.483 0 00-.774-2.104zM1229.289 831.361a1.479 1.479 0 00-2.237-.145 1.591 1.591 0 002.108 2.383 1.48 1.48 0 00.129-2.238zM1236 842.776a1.482 1.482 0 00-2.02-.97 1.591 1.591 0 001.065 2.998 1.482 1.482 0 00.955-2.028zM1237.855 855.922a1.47 1.47 0 00-1.459-1.703 1.591 1.591 0 00-.232 3.173 1.468 1.468 0 001.691-1.47zM1233.637 868.619a1.375 1.375 0 00.128-1.649 1.837 1.837 0 00-.583-.566 2.087 2.087 0 00-.785-.224 1.515 1.515 0 00-1.387.685 1.647 1.647 0 00.404 2.183 1.474 1.474 0 002.223-.429zM1223.252 877.125a1.463 1.463 0 00.813-2.089 1.591 1.591 0 00-2.909 1.29 1.465 1.465 0 002.096.799zM1210.13 879.514a1.465 1.465 0 001.678-1.487 1.591 1.591 0 00-3.177-.18 1.464 1.464 0 001.498 1.667zM1197.392 875.22a1.442 1.442 0 001.666.175 1.832 1.832 0 00.588-.565 2.098 2.098 0 00.25-.774 1.57 1.57 0 00-2.151-1.575 2.109 2.109 0 00-.664.471 1.823 1.823 0 00-.362.73 1.443 1.443 0 00.673 1.538zM1189.756 864.066a1.442 1.442 0 001.208 1.146 1.845 1.845 0 00.81-.083 2.081 2.081 0 00.674-.457 1.58 1.58 0 00-.76-2.577 2.072 2.072 0 00-.814-.016 1.85 1.85 0 00-.726.371 1.44 1.44 0 00-.392 1.616zM1189.349 850.712a1.472 1.472 0 001.23 1.876 1.593 1.593 0 00.635-3.122 1.472 1.472 0 00-1.865 1.246zM1194.758 838.57a1.476 1.476 0 00.335 2.216 1.59 1.59 0 001.88-2.565 1.478 1.478 0 00-2.215.35zM1204.466 829.587a1.49 1.49 0 00-.494 2.186 1.59 1.59 0 002.684-1.708 1.49 1.49 0 00-2.19-.478z" fill="#3e4147"/><path d="M1216.523 824.332a1.498 1.498 0 00-1.127 1.939 1.591 1.591 0 003.073-.827 1.499 1.499 0 00-1.946-1.112zM1229.55 822.728a1.499 1.499 0 00-1.619 1.551 1.591 1.591 0 003.182.056 1.498 1.498 0 00-1.563-1.607zM1242.52 824.884a1.41 1.41 0 00-1.592.316 1.886 1.886 0 00-.414.7 2.031 2.031 0 00-.032.815 1.458 1.458 0 001.057 1.17 1.589 1.589 0 002-.996 1.515 1.515 0 00-1.019-2.005zM1254.356 830.429a1.51 1.51 0 00-2.184.506 1.59 1.59 0 002.706 1.674 1.51 1.51 0 00-.522-2.18zM1264.665 838.379a1.517 1.517 0 00-2.24.063 1.591 1.591 0 002.32 2.177 1.517 1.517 0 00-.08-2.24zM1273.355 848.006a1.523 1.523 0 00-2.223-.298 1.592 1.592 0 001.944 2.523 1.524 1.524 0 00.279-2.225zM1280.532 858.76a1.527 1.527 0 00-2.164-.588 1.591 1.591 0 001.592 2.756 1.528 1.528 0 00.572-2.168zM1286.335 870.267a1.534 1.534 0 00-2.088-.815 1.591 1.591 0 001.288 2.91 1.534 1.534 0 00.8-2.095zM1291.094 882.188a1.54 1.54 0 00-2.027-.957 1.591 1.591 0 001.085 2.991 1.54 1.54 0 00.942-2.034zM1295.209 894.292a1.58 1.58 0 10-1.014 2 1.546 1.546 0 001.014-2zM1299.077 906.428a1.58 1.58 0 10-1.019 1.998 1.553 1.553 0 001.019-1.998zM1303.093 918.46a1.56 1.56 0 00-2.019-.973 1.591 1.591 0 001.06 3 1.56 1.56 0 00.96-2.027zM1307.66 930.228a1.566 1.566 0 00-2.08-.839 1.591 1.591 0 001.256 2.924 1.566 1.566 0 00.823-2.085zM1313.134 941.55a1.571 1.571 0 00-2.148-.639 1.591 1.591 0 001.524 2.793 1.572 1.572 0 00.624-2.153zM1319.783 952.16a1.579 1.579 0 00-2.212-.364 1.591 1.591 0 001.863 2.58 1.58 1.58 0 00.349-2.215zM1327.84 961.655a1.586 1.586 0 00-2.24-.002 1.591 1.591 0 002.255 2.244 1.587 1.587 0 00-.014-2.242zM1337.424 969.51a1.598 1.598 0 00-2.197.442 1.591 1.591 0 002.656 1.752 1.597 1.597 0 00-.459-2.194zM1348.442 975.073a1.595 1.595 0 00-2.043.926 1.592 1.592 0 002.986 1.108 1.594 1.594 0 00-.943-2.034zM1360.434 978.126a1.591 1.591 0 00-1.804 1.332 1.591 1.591 0 003.148.462 1.59 1.59 0 00-1.344-1.794zM1372.812 978.688a1.59 1.59 0 00-1.504 1.663 1.591 1.591 0 003.178-.173 1.59 1.59 0 00-1.674-1.49zM1385.052 976.781a1.592 1.592 0 00-1.14 1.93 1.591 1.591 0 003.079-.805 1.592 1.592 0 00-1.94-1.125zM1396.616 972.403a1.595 1.595 0 00-.702 2.13 1.591 1.591 0 002.836-1.444 1.596 1.596 0 00-2.134-.686zM1406.883 965.581a1.6 1.6 0 00-.187 2.234 1.591 1.591 0 002.422-2.064 1.6 1.6 0 00-2.235-.17zM1415.158 956.494a1.602 1.602 0 00.381 2.21 1.593 1.593 0 001.826-2.61 1.602 1.602 0 00-2.207.4zM1420.936 945.611a1.598 1.598 0 00.896 2.057 1.594 1.594 0 001.152-2.971 1.597 1.597 0 00-2.048.914zM1424.09 933.666a1.594 1.594 0 001.326 1.808 1.591 1.591 0 00.473-3.147 1.593 1.593 0 00-1.798 1.339zM1424.615 921.31a1.593 1.593 0 001.679 1.486 1.591 1.591 0 00-.205-3.175 1.594 1.594 0 00-1.474 1.69zM1422.481 909.143a1.597 1.597 0 001.964 1.082 1.591 1.591 0 00-.896-3.053 1.597 1.597 0 00-1.068 1.971zM1417.634 897.825a1.602 1.602 0 002.166.578 1.591 1.591 0 00-1.604-2.749 1.603 1.603 0 00-.562 2.17zM1410.664 888.656c.533.54 1.679-.547 1.679-.547s1.146-1.086.57-1.671c-.577-.585-1.68.547-1.68.547s-1.1 1.132-.569 1.671z" fill="#3e4147"/><path d="M1208.424 775.116c-2.61.87-11.747 1.306-14.357.436s-6.09 1.74-5.22 3.045 10.876 6.96 12.616 7.396 7.83-3.48 7.83-3.48z" fill="#f7c9a1" stroke="#3e4147" stroke-linecap="round" stroke-linejoin="round" stroke-width="1.895"/><path d="M847.285 252.177a98.343 98.343 0 00-16.582-31.586c-7.897-10.265-21.32-33.954-15.003-57.643s26.058-45.009 31.585-54.485 18.162-24.478 28.427-26.058 47.378-.79 63.17 1.58 35.534 11.055 45.01 21.32 18.373 22.557 23.11 44.667-4.16 46.93-1.79 65.092c2.083 15.97-8.686 31.585-12.634 33.165s-36.324 8.686-52.116 10.265-46.589-5.528-46.589-5.528" fill="#a57f53" stroke="#3e4147" stroke-linecap="round" stroke-linejoin="round" stroke-width="1.895"/><path d="M887.195 91.444a74.25 74.25 0 00-13.736-.78 37.878 37.878 0 00-12.083 2.402 24.547 24.547 0 00-5.004 2.665 23.249 23.249 0 00-3.882 3.59c-2.183 2.503-4.009 4.94-5.652 7.201a166.839 166.839 0 00-6.514 9.897c-1.496 2.46-2.429 4.139-3.03 5.27-1.197 2.265-1.063 2.345-1.063 2.345s.117.07 1.61-2.004l3.485-4.958c1.643-2.35 3.82-5.492 6.859-9.564 1.651-2.216 3.483-4.606 5.624-7.018a21.564 21.564 0 013.601-3.287 22.895 22.895 0 014.641-2.432 36.357 36.357 0 0111.497-2.23 73.356 73.356 0 0113.381.78c2.05.28 4.038.65 5.969 1.01l5.6 1.21c3.625.82 6.998 1.471 10.02 2.05 7.727 1.408 13.559 2.23 17.94 2.772 4.382.54 7.315.802 9.273.939 3.92.263 3.941.055 3.941.055s.018-.179-3.84-.863l-9.167-1.552c-4.341-.725-10.128-1.694-17.804-3.167-3.002-.59-6.355-1.25-9.952-2.071l-5.642-1.229c-1.962-.369-3.983-.746-6.072-1.03z" fill="#3e4147"/><path d="M1007.002 149.972c-4.737-22.11-13.635-34.402-23.11-44.667s-29.217-18.951-45.01-21.32c-9.126-1.37-25.366-2.21-39.437-2.371 18.1 4.424 38.101 9.998 47.334 12.636 16.582 4.738 38.692 23.689 39.482 35.534-17.372-16.583-39.482-16.583-39.482-16.583s40.271 33.954 13.424 18.951-56.064 6.318-79.428 4.819c8.617 7.187 33.337 18.061 21.784 17.291s-23.241-3.264-41.917-25.376c3.091 9.367 15.07 30.114 16.649 45.117-12.612-3.737-19.74-36.323-28.925-54.301 2.66 26.241-12.136 59.039-12.136 59.039s-.79-24.479 2.683-45.993c-3.24 9.282-13.272 31.225-14.356 49.176-.76 12.577 2.558 26.499 4.886 36.974.431.596.854 1.166 1.26 1.693a98.343 98.343 0 0116.582 31.586l46.588.79s30.796 7.106 46.589 5.527 48.167-8.686 52.116-10.265 14.717-17.195 12.634-33.165c-2.37-18.162 6.528-42.982 1.79-65.092z" fill="#8f6547"/><path d="M847.285 252.177a98.343 98.343 0 00-16.582-31.586c-7.897-10.265-21.32-33.954-15.003-57.643s26.058-45.009 31.585-54.485 18.162-24.478 28.427-26.058 47.378-.79 63.17 1.58 35.534 11.055 45.01 21.32 18.373 22.557 23.11 44.667-4.16 46.93-1.79 65.092c2.083 15.97-8.686 31.585-12.634 33.165s-36.324 8.686-52.116 10.265-46.589-5.528-46.589-5.528" fill="none" stroke="#3e4147" stroke-linecap="round" stroke-linejoin="round" stroke-width="1.895"/><path d="M996.895 233.224c2.79-12.633 5.63-22.898 5.63-30.005s12.162-4.737 12.952 11.055-3.159 46.589-22.9 29.217M853.602 246.65c-5.232-7.009-13.424-9.476-14.213-.79.79 13.423 12.634 41.85 29.216 35.533" fill="#e39d74" stroke="#3e4147" stroke-linecap="round" stroke-linejoin="round" stroke-width="1.895"/><path d="M1096.81 819.924c4.737-1.58 69.487-29.217 69.487-29.217 9.34-2.431 14.441-.638 11.807 4.763s-36.286 110.524-36.286 110.524zM852.812 891.78s-60.012-75.015-64.75-82.122.79-11.968 6.317-11.054 86.86 26.057 86.86 26.057z" fill="#e6e7e8" stroke="#3e4147" stroke-linecap="round" stroke-linejoin="round" stroke-width="1.895"/><path d="M869.395 789.128c-.79 2.369-3.948 26.058-5.528 30.796s-22.11 65.54-23.689 71.067a34.27 34.27 0 00-.79 11.844L854.393 936l-4.738 75.67H987.05s9.476-63.036 11.845-63.036 6.317 3.948 6.317 3.948l18.951 59.088 133.18 1.447s-9.997-61.324-10.787-69.22 7.897-37.114 7.897-37.114-37.113-93.176-39.482-97.914-11.055-28.427-12.634-33.954-232.942 14.213-232.942 14.213z" fill="#f3783c" stroke="#3e4147" stroke-linecap="round" stroke-linejoin="round" stroke-width="1.895"/><path d="M918.609 900.817q2.13.69 4.274 1.306c59.257 17.019 126.294-8.109 137.427-20.037 11.401-12.215 17.916-19.545 6.515-16.287s-73.294 19.545-89.581 24.431M935.71 865.799c25.246-4.886 71.666 4.072 68.408 4.072s-52.934 8.958-68.407-4.072zM1050.809 976.282c10.858-5.429 45.605-4.343 45.605-4.343s-52.12-21.717-106.412-29.318-87.952-9.772-87.952-9.772 46.69 17.373 59.72 29.317c10.26 9.405 16.47 25.576 20.241 49.504h5.04s9.475-63.036 11.844-63.036 6.317 3.948 6.317 3.948l18.951 59.088 5.136.126c6.997-15.513 15.77-32.644 21.51-35.514zM869.395 789.128c-.656 1.968-2.946 18.636-4.608 26.944 111.979 64.481 182.697 32.935 246.552-15.988-3.446-8.914-7.913-21.358-9.002-25.17-1.58-5.527-232.942 14.214-232.942 14.214z" fill="#df642f"/><path d="M869.395 789.128c-.79 2.369-3.948 26.058-5.528 30.796s-22.11 65.54-23.689 71.067a34.27 34.27 0 00-.79 11.844L854.393 936l-4.738 75.67H987.05s9.476-63.036 11.845-63.036 6.317 3.948 6.317 3.948l18.951 59.088 133.18 1.447s-9.997-61.324-10.787-69.22 7.897-37.114 7.897-37.114-37.113-93.176-39.482-97.914-11.055-28.427-12.634-33.954-232.942 14.213-232.942 14.213z" fill="none" stroke="#3e4147" stroke-linecap="round" stroke-linejoin="round" stroke-width="1.895"/><path d="M891.449 308.369c2.006 20.058 5.015 30.087 3.009 33.095s-23.067 6.018-32.093 5.015-38.05-4.499-61.177 24.07c-17.05 21.06-17.05 31.09-21.061 41.119s-18.052 37.107-29.084 65.188-19.055 36.105-30.087 53.154-21.061 40.116-20.058 82.238 7.02 94.272 9.026 110.319-1.003 30.087 0 45.13c-.035 4.06-2.404 8.007-4.773 15.904l-.79 4.737s-3.158 9.476-3.948 13.424 6.317 13.424 6.317 13.424 1.58 5.527 2.369 8.686 3.948 6.317 3.948 6.317 0 9.476.79 17.372 7.896 16.582 11.055 22.11 8.686 4.738 7.106-2.37-4.737-18.16-5.527-20.53.79-8.686.79-8.686 6.317-1.579 10.265 1.58 18.951-1.58 22.11-2.37 9.475-10.265 9.475-10.265a6.186 6.186 0 005.528-1.579 22.078 22.078 0 003.948-6.317s10.265-3.948 12.634-4.738 11.844-7.896 1.58-8.686-14.214 0-20.531-1.579-15.003-7.896-15.003-7.896 4.737-10.266 5.527-16.583 4.738-7.106 7.107-7.106 10.265 11.055 10.265 11.055 2.369 7.106 3.948 10.265 6.317 11.844 13.424 9.475c3.948-3.948 2.369-7.106 1.58-10.265s0-11.055-.79-15.003-3.949-8.686-6.317-13.424-6.318-13.423-6.318-13.423c-4.737-5.528-9.475-7.107-14.213-8.686s-10.265-3.159-12.634-5.528-6.317-20.53-5.528-33.954 12.635-47.378 18.952-78.964 6.317-51.326 8.686-58.433 12.634-15.792 30.006-43.43 28.427-46.588 28.427-46.588c6.317 5.528 11.844 73.436 35.533 93.967s92.387 41.06 93.967 43.43 62.38-20.531 70.277-18.162 56.854-64.75 56.854-64.75c8.686-22.9 13.423-60.802 16.582-65.54a252.46 252.46 0 0020.53 21.32c13.424 12.635 36.324 25.269 49.747 34.744s23.69 15.793 25.269 24.479 1.579 23.689 4.738 52.905-1.58 80.543-3.159 90.019-6.317 9.475-11.055 13.424-14.213 4.737-17.372 12.634-4.738 20.53-7.896 25.268-6.317 11.055-6.317 15.793.79 16.582.79 22.9-3.949 11.844-1.58 12.633 10.265 1.58 13.424-10.265 6.317-16.582 10.265-21.32 11.055-13.424 11.055-13.424 3.159 15.003 3.948 19.74-4.738 15.004-6.317 17.373-11.844 7.896-17.372 10.265-9.475 12.634-.79 11.845 20.531-4.738 20.531-4.738 9.476 5.527 14.213 6.317 22.9-1.58 25.269-3.948 5.527-14.214 5.527-14.214 5.528-12.634 7.896-15.003 6.318 7.897 7.107 10.265 3.948 11.055 4.738 15.004 7.107 5.527 6.317-2.37-3.158-22.11-3.948-26.847-1.58-11.055-2.369-13.424-10.265-21.32-11.845-26.058-2.368-27.637-.79-37.902 12.635-51.326 18.952-93.967 7.107-48.957 7.107-58.432-3.948-15.003-18.162-31.586-22.11-29.216-39.482-50.536-59.222-62.381-73.436-78.174-30.006-43.43-54.484-51.326c-17.372-7.107-48.958.79-54.485 0s-23.689-1.58-25.268-6.317-18.162-51.327-22.9-82.912-70.277 26.058-70.277 26.058z" fill="#f7c9a1" stroke="#3e4147" stroke-linecap="round" stroke-linejoin="round" stroke-width="1.895"/><path d="M1207.834 695.085a40.941 40.941 0 00-5.662 3.154 22.04 22.04 0 00-2.618 2.067c-1.018.979-.882 1.173-.882 1.173s.136.194 1.41-.386c.641-.28 1.562-.765 2.92-1.487 1.358-.74 3.152-1.614 5.67-2.82a63.213 63.213 0 005.632-3.136 30.546 30.546 0 002.733-1.862c1.103-.871.99-1.08.99-1.08s-.114-.207-1.444.248a30.576 30.576 0 00-3.044 1.29c-1.422.666-3.24 1.632-5.705 2.84zM1251.387 702.431a26.73 26.73 0 00-2.733-5.887 28.285 28.285 0 00-1.88-2.683c-.854-1.076-1.059-.98-1.059-.98s-.224.106.229 1.438a31.657 31.657 0 001.306 2.99 47.2 47.2 0 012.334 5.707 59.563 59.563 0 011.52 5.996 73.64 73.64 0 00.693 3.154c.348 1.335.585 1.324.585 1.324s.236-.011.359-1.407a18.926 18.926 0 00-.056-3.308 29.884 29.884 0 00-1.298-6.344zM754.872 733.655c-.864-.76-1.79-1.577-2.642-2.207a16.073 16.073 0 00-2.637-1.702 11.993 11.993 0 00-4.95-1.196 20.69 20.69 0 00-3.53.166 23.38 23.38 0 00-2.302.403c-2.378.565-2.328.815-2.328.815s.044.215 2.445.125c.6-.017 1.347-.044 2.273-.05a27.948 27.948 0 013.322.135 11.337 11.337 0 014.242 1.216 15.516 15.516 0 012.316 1.569c.844.644 1.609 1.332 2.556 2.163a32.808 32.808 0 009.74 5.889 27.07 27.07 0 005.632 1.513c2.437.297 2.471.046 2.471.046s.027-.22-2.245-.967c-1.12-.421-2.825-.959-5.239-2.066a38.161 38.161 0 01-9.124-5.852z" fill="#3e4147"/><path d="M994.148 349.045c5.535-10.744 11.757-27.344 16.636-36.513-5.426-16.116-16.13-49.406-19.786-73.779-4.737-31.585-70.277 26.058-70.277 26.058l-29.272 43.558c1.704 17.04 4.12 26.822 3.582 31.23 8.588 8.541 16.375 21.76 26.34 31.171 19.552 18.466 54.311 14.121 72.777-21.725zM1244.968 763.805s-6.82 17.727-13.131 22.164-15.61 3.103-12.734-2.029 13.372-21.111 4.048-15.343-12.634-7.896-15.003-15.003c-.867-2.601-.03-11.765-3.159-17.372-5.42-9.71-15.947-16.582-18.951-16.582-2.772 0-3.366-4.598-1.971-9.676a12.216 12.216 0 00-2.767 4.149c-3.158 7.896-4.738 20.53-7.896 25.268s-6.317 11.055-6.317 15.793.79 16.582.79 22.9-3.949 11.844-1.58 12.633 10.265 1.58 13.424-10.265 6.317-16.582 10.265-21.32 11.055-13.424 11.055-13.424 3.159 15.003 3.948 19.74-4.738 15.004-6.317 17.373-11.844 7.896-17.372 10.265-9.475 12.634-.79 11.845 20.531-4.738 20.531-4.738 9.476 5.527 14.213 6.317 22.9-1.58 25.269-3.948a8.455 8.455 0 001.347-2.11c-1.96-2.067-3.712-4.623-2.927-8.156 1.58-7.106 6.025-28.48 6.025-28.48zM779.376 812.817c-8.686 3.159-18.95-3.159-24.478-5.527s-22.9-15.003-30.796-18.162-15.003 0-13.367 3.904-.057 10.31-4.005 10.31c-2.52 0-4.07 1.04-4.66 4.412a58.303 58.303 0 004.66 7.432s1.58 5.527 2.369 8.686 3.948 6.317 3.948 6.317 0 9.476.79 17.372 7.896 16.582 11.055 22.11 8.686 4.737 7.106-2.37-4.737-18.16-5.527-20.53.79-8.686.79-8.686 6.317-1.579 10.265 1.58 18.951-1.58 22.11-2.37 9.475-10.265 9.475-10.265a6.186 6.186 0 005.528-1.579 22.078 22.078 0 003.948-6.317s10.265-3.948 12.634-4.738a14.072 14.072 0 005.84-4.848c-6.723.78-13.833 1.869-17.685 3.269zM747.791 767.808c-1.58 2.369 3.838 13.77 5.527 18.161.959 2.492 1.85 6.473 4.312 9.455 1.115-2.523 4.506-10.508 5.164-15.772.79-6.317 4.738-7.106 7.107-7.106.796 0 2.219 1.258 3.754 2.916-3.182-4.884-6.35-9.347-7.702-10.023-3.159-1.58-16.583 0-18.162 2.369zM770.663 631.663q.846-3.795 1.607-7.569c6.317-31.585 6.317-51.326 8.686-58.432.025-.077.057-.154.084-.231-4.857 3.75-9.187 4.78-13.518 5.6-10.28 1.943-30.19-3.268-37.297-7.216a165.79 165.79 0 0023.883 24.746c8.224 6.853 13.535 27.18 16.555 43.102z" fill="#e39d74"/><path d="M1230.257 516.704c0-2.369-15.003 3.948-23.689 5.528-12.68 2.305-37.32-20.006-45.2-28.233-10.45-10.908-25.255-23.315-30.286-37.723-.901-2.582-.157-5.059-1.28-7.655-4.931-11.398-13.358-13.763-24.043-18.46-13.959-6.136-27.906-13.945-41.948-6.197-18.635 10.281-21.622 2.148-27.896-16.74-5.11-15.38-9.268-32.537-8.812-48.905 0 0-7.678-32.706-9.257-13.753-1.63 19.563-4.928 39.121-8.434 58.418-3.47 19.1-7.934 51.338-25.7 63.317-16.298 10.985-50.298 10.998-63.038-4.775-16.582-20.53-24.432-89.325-24.432-89.325s-3.158-1.58-4.738 28.427c-.868 16.5-1.682 70.009-29.483 67.648-9.794-.837-18.17-12.871-22.768-20.223-5.005-8.004-22.372-29.322-22.764-21.367 9.766 23.644 10.163 53.633 9.25 71.697 8.611-14.103 13.65-22.74 13.65-22.74 6.317 5.528 11.844 73.436 35.533 93.967s92.387 41.06 93.967 43.43 62.38-20.53 70.277-18.162 56.854-64.75 56.854-64.75c8.686-22.9 13.423-60.802 16.582-65.54a252.46 252.46 0 0020.53 21.32c13.424 12.635 36.324 25.269 49.747 34.744s23.69 15.793 25.269 24.48 1.579 23.688 4.738 52.905c.29 2.69.513 5.57.679 8.585.799-7.327 1.406-15.48 1.69-24.378 1.308-41.049 15.002-63.17 15.002-65.54z" fill="#e39d74"/><path d="M891.449 308.369c2.006 20.058 5.015 30.087 3.009 33.095s-23.067 6.018-32.093 5.015-38.05-4.499-61.177 24.07c-17.05 21.06-17.05 31.09-21.061 41.119s-18.052 37.107-29.084 65.188-19.055 36.105-30.087 53.154-21.061 40.116-20.058 82.238 7.02 94.272 9.026 110.319-1.003 30.087 0 45.13c-.035 4.06-2.404 8.007-4.773 15.904l-.79 4.737s-3.158 9.476-3.948 13.424 6.317 13.424 6.317 13.424 1.58 5.527 2.369 8.686 3.948 6.317 3.948 6.317 0 9.476.79 17.372 7.896 16.582 11.055 22.11 8.686 4.738 7.106-2.37-4.737-18.16-5.527-20.53.79-8.686.79-8.686 6.317-1.579 10.265 1.58 18.951-1.58 22.11-2.37 9.475-10.265 9.475-10.265a6.186 6.186 0 005.528-1.579 22.078 22.078 0 003.948-6.317s10.265-3.948 12.634-4.738 11.844-7.896 1.58-8.686-14.214 0-20.531-1.579-15.003-7.896-15.003-7.896 4.737-10.266 5.527-16.583 4.738-7.106 7.107-7.106 10.265 11.055 10.265 11.055 2.369 7.106 3.948 10.265 6.317 11.844 13.424 9.475c3.948-3.948 2.369-7.106 1.58-10.265s0-11.055-.79-15.003-3.949-8.686-6.317-13.424-6.318-13.423-6.318-13.423c-4.737-5.528-9.475-7.107-14.213-8.686s-10.265-3.159-12.634-5.528-6.317-20.53-5.528-33.954 12.635-47.378 18.952-78.964 6.317-51.326 8.686-58.433 12.634-15.792 30.006-43.43 28.427-46.588 28.427-46.588c6.317 5.528 11.844 73.436 35.533 93.967s92.387 41.06 93.967 43.43 62.38-20.531 70.277-18.162 56.854-64.75 56.854-64.75c8.686-22.9 13.423-60.802 16.582-65.54a252.46 252.46 0 0020.53 21.32c13.424 12.635 36.324 25.269 49.747 34.744s23.69 15.793 25.269 24.479 1.579 23.689 4.738 52.905-1.58 80.543-3.159 90.019-6.317 9.475-11.055 13.424-14.213 4.737-17.372 12.634-4.738 20.53-7.896 25.268-6.317 11.055-6.317 15.793.79 16.582.79 22.9-3.949 11.844-1.58 12.633 10.265 1.58 13.424-10.265 6.317-16.582 10.265-21.32 11.055-13.424 11.055-13.424 3.159 15.003 3.948 19.74-4.738 15.004-6.317 17.373-11.844 7.896-17.372 10.265-9.475 12.634-.79 11.845 20.531-4.738 20.531-4.738 9.476 5.527 14.213 6.317 22.9-1.58 25.269-3.948 5.527-14.214 5.527-14.214 5.528-12.634 7.896-15.003 6.318 7.897 7.107 10.265 3.948 11.055 4.738 15.004 7.107 5.527 6.317-2.37-3.158-22.11-3.948-26.847-1.58-11.055-2.369-13.424-10.265-21.32-11.845-26.058-2.368-27.637-.79-37.902 12.635-51.326 18.952-93.967 7.107-48.957 7.107-58.432-3.948-15.003-18.162-31.586-22.11-29.216-39.482-50.536-59.222-62.381-73.436-78.174-30.006-43.43-54.484-51.326c-17.372-7.107-48.958.79-54.485 0s-23.689-1.58-25.268-6.317-18.162-51.327-22.9-82.912-70.277 26.058-70.277 26.058z" fill="none" stroke="#3e4147" stroke-linecap="round" stroke-linejoin="round" stroke-width="1.895"/><path d="M915.236 342.273a94.437 94.437 0 00-5.06-4.06 58.007 58.007 0 01-5.014-4.358 29.78 29.78 0 01-3.177-3.787 50.376 50.376 0 01-3.069-5.139c-1.138-2.273-1.274-2.227-1.274-2.227s-.14.049.684 2.489a31.981 31.981 0 002.66 5.534 27.622 27.622 0 003.123 4.13 52.174 52.174 0 005.008 4.647c1.183 1.066 2.827 2.434 4.877 4.203l1.66 1.458.897.815c.78.714 1.53 1.42 2.251 2.11l7.467 7.135c4.213 4.062 6.962 6.825 8.805 8.662 1.84 1.84 2.775 2.75 3.27 3.183.493.434.538.395.538.395s.046-.038-.314-.589a42.107 42.107 0 00-2.794-3.629c-1.677-2.006-4.273-4.95-8.377-9.155a403.715 403.715 0 00-7.338-7.31 125.003 125.003 0 00-2.25-2.155l-.897-.85-1.676-1.502zM1086.32 474.398l.217-1.777.099-1.581c.05-.988.107-1.845.102-2.573.203-5.147-.017-8.985-.13-11.861-.165-2.874-.313-4.786-.448-6.059-.26-2.546-.406-2.541-.406-2.541s-.145.005-.239 2.562a214.33 214.33 0 00-.102 6.063c-.068 2.865-.016 6.693-.341 11.748l-.264 2.511-.14 1.544-.228 1.725-.249 1.984-.197 1.105c-.213 1.027-.324 2.047-.605 2.982a37.062 37.062 0 01-3.527 9.436 27.272 27.272 0 01-2.097 3.336l-1.012 1.4c-.315.45-.704.808-1.025 1.189-.68.729-1.233 1.45-1.833 1.995l-1.6 1.479a26.925 26.925 0 01-2.277 1.929c-.566.46-.938.78-1.18 1.002-.486.444-.455.495-.455.495s.03.05.616-.247c.292-.149.725-.384 1.363-.76a18.077 18.077 0 002.534-1.686l1.763-1.387c.658-.52 1.276-1.225 2.024-1.944a16.269 16.269 0 001.129-1.185l1.122-1.412a26.773 26.773 0 002.32-3.419 36.542 36.542 0 003.897-9.79c.304-.976.432-2.02.662-3.085l.229-1.139c.102-.634.182-1.315.278-2.04zM983.077 335.39c5.385-18.627 4.475-18.89 4.475-18.89s-.91-.263-6.295 18.363-4.475 18.89-4.475 18.89.91.263 6.295-18.363zM894.058 383.028c-5.792-6.316-9.964-11.62-13.12-15.49-3.198-3.976-5.616-6.957-7.535-9.117a41.307 41.307 0 00-4.306-4.343c-.503-.41-.901-.693-1.198-.902a10.483 10.483 0 00-.677-.378c-.292-.144-.311-.113-.311-.113s-.02.03.2.268c.11.119.28.289.538.53l1.003 1.063c.852.932 2.075 2.384 3.831 4.64 1.762 2.25 4.038 5.322 7.142 9.382 3.055 3.964 7.18 9.354 13.04 15.744 2.558 2.78 4.981 5.207 7.028 7.09a99.603 99.603 0 007.986 6.71 71.731 71.731 0 006.544 4.337 49.856 49.856 0 008.473 4.03 23.662 23.662 0 003.317.97c.485.098.5.052.5.052s.014-.046-.42-.286c-.425-.26-1.337-.621-3.082-1.486a73.676 73.676 0 01-8.038-4.504c-1.852-1.15-3.91-2.657-6.272-4.452a113.2 113.2 0 01-7.742-6.718c-1.995-1.875-4.372-4.28-6.9-7.027zM1016.227 370.653a229.443 229.443 0 01-22.394 23.897 112.614 112.614 0 01-13.906 11.01c-2.139 1.373-2.079 1.506-2.079 1.506s.06.133 2.4-.946c2.276-1.16 6.91-3.595 14.694-10.324a207.33 207.33 0 0022.746-23.936 304.295 304.295 0 009.902-12.653c9.3-12.671 13.103-19.612 14.785-23.185a12.326 12.326 0 001.16-3.278c.055-.506.005-.506.005-.506s-.05-.001-.244.44a31.604 31.604 0 01-1.641 2.965c-2.027 3.315-6.182 9.947-15.546 22.459a345.756 345.756 0 01-9.882 12.55zM960.698 479.518c-.647-3.34-1.125-5.969-1.484-7.914-1.635-10.045-2.169-15.125-2.585-17.646-.388-2.527-.533-2.517-.533-2.517s-.146.01-.11 2.571a145.935 145.935 0 001.58 17.845c.223 1.98.617 4.647 1.272 8.023.288 1.47.55 2.802.819 3.872A99.71 99.71 0 00965 501.185a47.836 47.836 0 002.489 5.053c.393.668.712 1.287 1.068 1.806l.969 1.378a12.553 12.553 0 001.446 1.779c.381.408.643.671.823.84.36.34.397.306.397.306s.035-.032-.208-.465a18.832 18.832 0 00-.61-.991 18.656 18.656 0 01-1.167-1.915c-1.903-3.336-5.511-10.345-8.746-25.617-.235-1.063-.478-2.385-.764-3.84z" fill="#3e4147"/><path d="M921.02 270.21c4.503-2.81 41.312-10.377 72.806-16.487-1.147-5.198-2.12-10.252-2.828-14.97-4.737-31.585-70.277 26.058-70.277 26.058l-13.23 19.687c5.395-6.741 10.586-12.452 13.53-14.288z" fill="#fcf6dc" stroke="#3e4147" stroke-linecap="round" stroke-linejoin="round" stroke-width="1.895"/><path d="M1148.136 379.308c-14.214-15.793-30.007-43.43-54.485-51.326-17.372-7.107-48.958.79-54.485 0-2.257-.323-6.62-.646-11.101-1.237l-8.015-1.868c-3.252 14.139-8.598 28.135-12.85 30.565-7.058 4.033-19.158 14.116-25.712 15.629s-8.571-3.025-10.084 7.562-4.033 28.737-4.033 33.779-2.52 13.108-3.529 15.629-8.72 19.26-10.662 18.2-2.95-14.167-4.463-16.183-1.512-7.059-4.033-10.084-11.596-16.637-19.662-26.216-4.034-13.108-17.646-22.687c-13.61-9.577-11.597-20.162-15.123-28.732l-4.995 1.982c-7.504 1.71-18.872 2.827-24.893 2.158-9.026-1.003-38.05-4.499-61.177 24.07-17.05 21.06-17.05 31.09-21.06 41.119-4.058 10.144-9.183 19.896-13.766 29.811-5.628 12.171-21.413 22.481-20.208 36.635 5.94 71.934 70.473 58.826 70.473 58.826 17.362-27.62 17.646-33.78 28.935-41.616 2.136 9.33 6.755 17.041 4.226 26.88-2.637 10.26-2.968 18.133-.602 28.42 2.002 8.702 4.416 17.899 4.416 26.882 0 10.265-8.686 20.53-7.896 27.637s19.74 29.217 20.53 37.903 1.58 15.792 1.58 19.74-6.318 28.427-5.528 44.22 3.948 25.268 3.948 29.217 0 7.106-3.948 12.634c-3.948 5.527-6.317 12.634-5.527 15.792.79 3.159 7.106 22.11 7.106 22.11s-6.317 1.58-3.158 8.686 45.009 33.165 110.549 41.85c65.54 8.687 126.341-40.27 138.186-58.432-.79-11.845-4.738-13.424-3.949-19.741s5.528-12.634 3.949-16.582-8.686-18.952-8.686-22.9-3.949-16.582.79-30.796 8.685-19.74 6.316-27.637-12.634-24.478-11.844-31.585 7.107-14.214 7.896-22.9 0-26.057-.79-36.323c-.928-12.073 3.249-24.622 4.803-36.517 1.88-14.376-2.876-28.244-1.661-42.394.455-5.306 2.152-10.773 3.22-16.005.193-.947 3.408-10.534 3.114-10.895.035.044 28.584 35.016 32.738 38.069 18.3-20.731 37.393-47.274 57.928-65.772-19.573-20.972-44.739-46.028-55.132-57.577z" fill="#d8e9f7" stroke="#3e4147" stroke-linecap="round" stroke-linejoin="round" stroke-width="1.895"/><path d="M962.572 611.723c13.687 0 37.902-7.37 24.215-8.422s-67.382-12.634-97.915-41.061c-11.508-10.715-28.59-29.888-38.572-42.741-.056.412-.117.826-.197 1.245-.087.481-.188.967-.315 1.46a86.724 86.724 0 00-.823 3.488l-.004.021a71.09 71.09 0 00-.633 3.349c.178.093.345.198.536.276 2.957 1.22.087 9.273-1.11 12.287.052.658.121 1.323.2 1.992.02.182.046.366.07.548q.094.746.21 1.504.05.33.105.663c.082.497.173 1 .269 1.508.039.209.076.415.118.626.14.709.292 1.426.46 2.158 1.868 8.123 4.07 16.675 4.359 25.084.016.301.031.599.04.883 23.488 13.466 49.427 27.161 58.45 30.921 12.634 5.264 36.85 4.211 50.537 4.211zM1017.32 588.56c26.32-5.263 15.792-10.528 3.158-13.686-12.634-3.159-31.585-80.016-103.179-54.748-22.11 0-4.504 23.312 22.555 40.99s40.616 31.656 77.465 27.445zM905.372 369.557a35.26 35.26 0 01-1.438-1.212l-.04-.037a31.21 31.21 0 01-1.555-1.505 28.962 28.962 0 01-1.125-1.224c-.02-.022-.036-.044-.055-.066a26.886 26.886 0 01-1.186-1.494 26.167 26.167 0 01-.86-1.227l-.065-.104c-.249-.384-.48-.768-.7-1.152a26.382 26.382 0 01-.823-1.54c-.023-.044-.042-.089-.064-.133-.18-.375-.35-.75-.51-1.125l-.135-.319a30.405 30.405 0 01-.474-1.21c-.021-.057-.04-.115-.06-.173q-.195-.541-.367-1.08l-.104-.325q-.185-.596-.352-1.19l-.054-.202q-.143-.52-.273-1.039l-.085-.338q-.14-.573-.272-1.143l-.076-.33-.199-.887-.336-1.52c-3.317 2.11-5.272 3.777-5.442 4.84-1.512 9.472 1.513 41.448 6.554 58.59s16.133 30.25 19.158 33.779 10.588.504 12.1-3.025-1.008-19.663-.504-24.2 7.562 3.025 10.587 9.579-.08 36.809 2.956 46.866 14.186 11.112 17.21 10.104 11.596-11.091 10.588-16.133 1.008-21.175 4.033-28.737 9.58-18.15 12.1-18.15 16.638 13.612 20.67 16.133 6.555-2.016 9.58-9.075 19.158-68.061 22.183-78.649c2.297-8.04 2.557-14.92 2.109-23.064l-.046-.005c-1.307-.151-2.995-.312-4.869-.506l-.322-.033q-.543-.057-1.103-.118a209.04 209.04 0 01-.494-.054q-.54-.06-1.093-.125l-.477-.056q-.783-.094-1.577-.198l-8.015-1.868c-3.252 14.139-8.598 28.135-12.85 30.565-7.059 4.033-19.158 14.116-25.712 15.629s-8.571-3.025-10.084 7.562-4.033 28.737-4.033 33.779-2.52 13.108-3.529 15.629-8.72 19.26-10.662 18.2-2.95-14.167-4.463-16.183-1.512-7.059-4.033-10.084-11.596-16.637-19.662-26.216-4.034-13.108-17.646-22.687a39.66 39.66 0 01-1.624-1.213q-.192-.15-.38-.3z" fill="#c4d7e9"/><path d="M1109.443 778.863a38.599 38.599 0 00-2.699-12.302l-.226-.612c-.173-.473-.334-.93-.478-1.383a11.918 11.918 0 01-.545-5.444c.05-.395.114-.79.192-1.184q.117-.592.27-1.18c.201-.785.445-1.566.71-2.337a66.4 66.4 0 01.84-2.28c.434-1.123.87-2.214 1.241-3.258.124-.347.241-.69.348-1.027a11.352 11.352 0 00.664-3.73 4.69 4.69 0 00-.317-1.587c-.367-.917-1.034-2.437-1.84-4.272l-.374-.85-.302-.691-.401-.918-.317-.728a289.595 289.595 0 01-1.853-4.358c-.365-.882-.722-1.76-1.06-2.619-.254-.643-.497-1.275-.726-1.888a24.635 24.635 0 01-1.813-6.575 37.377 37.377 0 00-.542-4.479c-.074-.49-.152-1.008-.229-1.55a69 69 0 01-.77-9.818c0-.805.02-1.633.06-2.475a47.338 47.338 0 011.253-8.848c.175-.727.374-1.459.592-2.197.14-.476.266-.949.426-1.429 1.103-3.31 2.16-6.134 3.107-8.642.579-1.53 1.12-2.951 1.599-4.266q.315-.868.596-1.685c.374-1.09.697-2.122.96-3.114a21.77 21.77 0 00.734-4.279 15.914 15.914 0 00-.679-5.65l-.002-.006a25.33 25.33 0 00-.377-1.14l-.068-.193c-.465-1.29-1.078-2.744-1.777-4.305-14.742 12.919-32.988 24.661-51.872 30.428-12.148 3.71-27.124 6.69-20.88-9.844 1.947-5.153 6.757-12.338 11.634-20.084 8.231-13.075 16.652-27.75 11.812-36.957-9.777-18.597-44.232-3.086-57.357 3.279-24.592 11.926-43.84 26.813-73.231 27.102-12.088.118-28.258-2.273-37.882-10.331-7.522-6.299-12.265-14.564-20.657-20.582-5.369-3.85-12.87-10.742-21.134-17.425a16.029 16.029 0 00-.3 1.613 11.98 11.98 0 00-.103 1.193 8.832 8.832 0 00.036 1.187c.312 2.81 3.465 7.967 7.21 13.71q.6.919 1.213 1.852l1.842 2.797a460.54 460.54 0 012.391 3.668q.464.72.917 1.433c.989 1.558 1.934 3.09 2.79 4.56.507.875.985 1.728 1.422 2.553a21.848 21.848 0 012.745 7.33q.148 1.628.295 3.18c.485 5.166.933 9.639 1.149 13.032q.032.509.057.985c.05.952.078 1.803.078 2.543a40.157 40.157 0 01-.766 5.233c-.133.72-.278 1.497-.434 2.32-.234 1.237-.49 2.581-.757 4.01l-.27 1.455c-.456 2.47-.933 5.152-1.38 7.933q-.134.834-.264 1.68c-1.125 7.324-1.977 15.173-1.656 21.589a141.541 141.541 0 002.21 18.713q.23 1.261.447 2.391c.19.993.373 1.923.535 2.768.358 1.87.627 3.379.72 4.54.024.29.036.558.036.804 0 .987 0 1.925-.061 2.863a15.117 15.117 0 01-1.222 5.187q-.175.408-.382.834a26.61 26.61 0 01-2.283 3.75c-3.455 4.837-5.7 10.883-5.679 14.435a5.797 5.797 0 00.152 1.358c.444 1.777 2.637 8.55 4.47 14.137l.303.92c1.29 3.925 2.333 7.053 2.333 7.053a6.416 6.416 0 00-1.942.959 5.69 5.69 0 00-.587.494 4.952 4.952 0 00-.656.749 4.675 4.675 0 00-.362.613 5.072 5.072 0 00-.493 2.43 7.07 7.07 0 00.11 1.027 10.558 10.558 0 00.772 2.414 8.137 8.137 0 001.452 1.99c.431.466.919.957 1.517 1.492a43.424 43.424 0 002.79 2.275c10.177 7.68 33.003 19.642 65.337 28.28q5.105 1.364 10.523 2.608 5.416 1.24 11.133 2.335 8.574 1.634 17.797 2.87 4.608.611 9.18.851c61.952 3.313 117.716-41.973 129.005-59.283zM1149.689 497.637c.755-.883 1.51-1.768 2.268-2.667.391-.463.784-.933 1.176-1.4q1.117-1.331 2.237-2.676.532-.64 1.065-1.285 1.274-1.537 2.553-3.09.298-.36.595-.722c3.567-4.337 7.169-8.753 10.81-13.159-16.37-7.608-33.553-20.326-36.649-23.422-4.537-4.538 4.537-15.63-1.513-19.158s-85.203-10.588-88.228-5.546c-3.391 5.656 6.89 20.85 9.968 25.05 6.103 8.326 14.885 12.208 22.132 19.158 7.621 7.31 9.115 16.02 8.233 25.98-.965 10.894-.133 17.02 7.45 24.973 5.993 6.283 8.354 11.405 8.906 20.038.445 6.968.437 16.374 2.375 24.474v-.001q.044-.908.116-1.818l.011-.147c.568-7.142 2.276-14.36 3.605-21.43.023-.118.044-.237.066-.356q.158-.843.305-1.683l.11-.63q.13-.76.25-1.515c.033-.212.068-.424.1-.636.107-.698.209-1.394.3-2.087a60.73 60.73 0 00.362-10.7 111.354 111.354 0 00-.383-5.3q-.124-1.323-.267-2.643c-.662-6.161-1.539-12.291-1.574-18.457-.01-1.761.048-3.526.2-5.295a50.747 50.747 0 01.937-6.015c.703-3.357 1.616-6.72 2.282-9.989.194-.947 3.41-10.534 3.115-10.895.035.044 28.584 35.016 32.738 38.069q1.638-1.856 3.286-3.774c.353-.411.708-.831 1.063-1.246zM846.281 498.109q.178.632.363 1.257c.096.322.191.646.29.966.041.136.084.271.126.407a76.321 76.321 0 013.194 12.012v.001c17.12 12.87 48.918 19.136 31.914 4.525-10.5-9.022-58.483-91.253-64.533-97.303s2.521 37.308 5.546 55.458c2.567 15.401-19.547 44.229-32.774 60.925a72.485 72.485 0 0025.356.734l.029-.004.253-.042.073-.013.172-.03.083-.015.1-.018.061-.011.093-.018c17.361-27.62 17.646-33.78 28.935-41.616.16.697.336 1.382.519 2.063.065.242.133.482.2.722z" fill="#c4d7e9"/><path d="M1148.136 379.308c-14.214-15.793-30.007-43.43-54.485-51.326-17.372-7.107-48.958.79-54.485 0-2.257-.323-6.62-.646-11.101-1.237l-8.015-1.868c-3.252 14.139-8.598 28.135-12.85 30.565-7.058 4.033-19.158 14.116-25.712 15.629s-8.571-3.025-10.084 7.562-4.033 28.737-4.033 33.779-2.52 13.108-3.529 15.629-8.72 19.26-10.662 18.2-2.95-14.167-4.463-16.183-1.512-7.059-4.033-10.084-11.596-16.637-19.662-26.216-4.034-13.108-17.646-22.687c-13.61-9.577-11.597-20.162-15.123-28.732l-4.995 1.982c-7.504 1.71-18.872 2.827-24.893 2.158-9.026-1.003-38.05-4.499-61.177 24.07-17.05 21.06-17.05 31.09-21.06 41.119-4.058 10.144-9.183 19.896-13.766 29.811-5.628 12.171-21.413 22.481-20.208 36.635 5.94 71.934 70.473 58.826 70.473 58.826 17.362-27.62 17.646-33.78 28.935-41.616 2.136 9.33 6.755 17.041 4.226 26.88-2.637 10.26-2.968 18.133-.602 28.42 2.002 8.702 4.416 17.899 4.416 26.882 0 10.265-8.686 20.53-7.896 27.637s19.74 29.217 20.53 37.903 1.58 15.792 1.58 19.74-6.318 28.427-5.528 44.22 3.948 25.268 3.948 29.217 0 7.106-3.948 12.634c-3.948 5.527-6.317 12.634-5.527 15.792.79 3.159 7.106 22.11 7.106 22.11s-6.317 1.58-3.158 8.686 45.009 33.165 110.549 41.85c65.54 8.687 126.341-40.27 138.186-58.432-.79-11.845-4.738-13.424-3.949-19.741s5.528-12.634 3.949-16.582-8.686-18.952-8.686-22.9-3.949-16.582.79-30.796 8.685-19.74 6.316-27.637-12.634-24.478-11.844-31.585 7.107-14.214 7.896-22.9 0-26.057-.79-36.323c-.928-12.073 3.249-24.622 4.803-36.517 1.88-14.376-2.876-28.244-1.661-42.394.455-5.306 2.152-10.773 3.22-16.005.193-.947 3.408-10.534 3.114-10.895.035.044 28.584 35.016 32.738 38.069 18.3-20.731 37.393-47.274 57.928-65.772-19.573-20.972-44.739-46.028-55.132-57.577z" fill="none" stroke="#3e4147" stroke-linecap="round" stroke-linejoin="round" stroke-width="1.895"/><path d="M618.655 884.005c-12.673-11.987-28.413-15.925-35.156-8.796a10.362 10.362 0 00-1.83 2.736c7.867-2.634 20.292 1.773 30.669 11.587 11.24 10.632 16.273 24.01 12.568 31.877a10.791 10.791 0 004.488-2.792c6.742-7.129 1.934-22.625-10.74-34.612z" fill="#d09d2a" stroke="#3e4147" stroke-linecap="round" stroke-linejoin="round" stroke-width="1.895"/><path d="M612.338 889.533c-10.377-9.815-22.802-14.222-30.668-11.588-3.705 7.866 1.328 21.245 12.568 31.876 10.377 9.814 22.802 14.222 30.668 11.588 3.705-7.866-1.328-21.245-12.568-31.876z" fill="#fdbe2a" stroke="#3e4147" stroke-linecap="round" stroke-linejoin="round" stroke-width="1.895"/><path d="M1270.919 847.997c-11.851 9.19-17.267 22.045-12.097 28.711a8.909 8.909 0 002.083 1.914c-1.203-7.03 4.176-17.006 13.879-24.531 10.51-8.152 22.54-10.668 28.735-6.486a9.277 9.277 0 00-1.782-4.18c-5.17-6.666-18.967-4.62-30.818 4.572z" fill="#d09d2a" stroke="#3e4147" stroke-linecap="round" stroke-linejoin="round" stroke-width="1.629"/><path d="M1274.784 854.09c-9.703 7.526-15.082 17.503-13.879 24.532 6.196 4.182 18.225 1.666 28.736-6.485 9.703-7.526 15.082-17.502 13.878-24.532-6.196-4.182-18.224-1.666-28.735 6.486z" fill="#fdbe2a" stroke="#3e4147" stroke-linecap="round" stroke-linejoin="round" stroke-width="1.629"/><path d="M719.972 904.526c-9.065.186-16.328 4.47-16.224 9.57a5.386 5.386 0 00.321 1.68c1.951-3.845 8.159-6.746 15.58-6.899 8.04-.165 14.784 2.952 16.283 7.215a5.609 5.609 0 00.642-2.67c-.105-5.1-7.538-9.082-16.602-8.896z" fill="#f7c9a1"/><path d="M719.65 908.877c-7.422.153-13.63 3.054-15.581 6.899 1.498 4.263 8.242 7.38 16.282 7.215 7.422-.153 13.63-3.054 15.58-6.899-1.498-4.263-8.242-7.38-16.281-7.215z" fill="#f7c9a1"/><path d="M719.972 904.526c-9.065.186-16.328 4.47-16.224 9.57a5.386 5.386 0 00.321 1.68c1.951-3.845 8.159-6.746 15.58-6.899 8.04-.165 14.784 2.952 16.283 7.215a5.609 5.609 0 00.642-2.67c-.105-5.1-7.538-9.082-16.602-8.896z" fill="#d09d2a" stroke="#3e4147" stroke-linecap="round" stroke-linejoin="round" stroke-width=".985"/><path d="M719.65 908.877c-7.422.153-13.63 3.054-15.581 6.899 1.498 4.263 8.242 7.38 16.282 7.215 7.422-.153 13.63-3.054 15.58-6.899-1.498-4.263-8.242-7.38-16.281-7.215z" fill="#fdbe2a" stroke="#3e4147" stroke-linecap="round" stroke-linejoin="round" stroke-width=".985"/><path d="M719.972 904.526c-9.065.186-16.328 4.47-16.224 9.57a5.386 5.386 0 00.321 1.68c1.951-3.845 8.159-6.746 15.58-6.899 8.04-.165 14.784 2.952 16.283 7.215a5.609 5.609 0 00.642-2.67c-.105-5.1-7.538-9.082-16.602-8.896z" fill="none" stroke="#3e4147" stroke-linecap="round" stroke-linejoin="round" stroke-width="1.895"/><path d="M719.65 908.877c-7.422.153-13.63 3.054-15.581 6.899 1.498 4.263 8.242 7.38 16.282 7.215 7.422-.153 13.63-3.054 15.58-6.899-1.498-4.263-8.242-7.38-16.281-7.215z" fill="none" stroke="#3e4147" stroke-linecap="round" stroke-linejoin="round" stroke-width="1.895"/><path d="M1205.932 906.592c-9.064.187-16.328 4.471-16.223 9.57a5.385 5.385 0 00.32 1.68c1.952-3.845 8.16-6.746 15.581-6.899 8.04-.165 14.784 2.952 16.282 7.215a5.609 5.609 0 00.643-2.67c-.105-5.1-7.538-9.082-16.603-8.896z" fill="#f7c9a1"/><path d="M1205.61 910.943c-7.422.153-13.63 3.054-15.58 6.899 1.498 4.263 8.242 7.38 16.282 7.215 7.422-.153 13.63-3.054 15.58-6.899-1.498-4.263-8.242-7.38-16.282-7.215z" fill="#f7c9a1"/><path d="M1205.932 906.592c-9.064.187-16.328 4.471-16.223 9.57a5.385 5.385 0 00.32 1.68c1.952-3.845 8.16-6.746 15.581-6.899 8.04-.165 14.784 2.952 16.282 7.215a5.609 5.609 0 00.643-2.67c-.105-5.1-7.538-9.082-16.603-8.896z" fill="#d09d2a" stroke="#3e4147" stroke-linecap="round" stroke-linejoin="round" stroke-width=".985"/><path d="M1205.61 910.943c-7.422.153-13.63 3.054-15.58 6.899 1.498 4.263 8.242 7.38 16.282 7.215 7.422-.153 13.63-3.054 15.58-6.899-1.498-4.263-8.242-7.38-16.282-7.215z" fill="#fdbe2a" stroke="#3e4147" stroke-linecap="round" stroke-linejoin="round" stroke-width=".985"/><path d="M1205.932 906.592c-9.064.187-16.328 4.471-16.223 9.57a5.385 5.385 0 00.32 1.68c1.952-3.845 8.16-6.746 15.581-6.899 8.04-.165 14.784 2.952 16.282 7.215a5.609 5.609 0 00.643-2.67c-.105-5.1-7.538-9.082-16.603-8.896z" fill="none" stroke="#3e4147" stroke-linecap="round" stroke-linejoin="round" stroke-width="1.895"/><path d="M1205.61 910.943c-7.422.153-13.63 3.054-15.58 6.899 1.498 4.263 8.242 7.38 16.282 7.215 7.422-.153 13.63-3.054 15.58-6.899-1.498-4.263-8.242-7.38-16.282-7.215z" fill="none" stroke="#3e4147" stroke-linecap="round" stroke-linejoin="round" stroke-width="1.895"/><path d="M772.81 879.398c-4.274 5.16-5.386 11.294-2.483 13.698a3.98 3.98 0 001.095.632c-1.209-2.949.167-7.823 3.667-12.049 3.791-4.577 8.793-6.844 11.902-5.623a4.145 4.145 0 00-1.184-1.65c-2.903-2.404-8.722-.17-12.996 4.992z" fill="#f7c9a1"/><path d="M775.089 881.68c-3.5 4.225-4.876 9.1-3.667 12.048 3.109 1.222 8.11-1.046 11.901-5.623 3.5-4.226 4.876-9.1 3.668-12.049-3.11-1.221-8.11 1.046-11.902 5.623z" fill="#f7c9a1"/><path d="M772.81 879.398c-4.274 5.16-5.386 11.294-2.483 13.698a3.98 3.98 0 001.095.632c-1.209-2.949.167-7.823 3.667-12.049 3.791-4.577 8.793-6.844 11.902-5.623a4.145 4.145 0 00-1.184-1.65c-2.903-2.404-8.722-.17-12.996 4.992z" fill="#d09d2a" stroke="#3e4147" stroke-linecap="round" stroke-linejoin="round" stroke-width=".728"/><path d="M775.089 881.68c-3.5 4.225-4.876 9.1-3.667 12.048 3.109 1.222 8.11-1.046 11.901-5.623 3.5-4.226 4.876-9.1 3.668-12.049-3.11-1.221-8.11 1.046-11.902 5.623z" fill="#fdbe2a" stroke="#3e4147" stroke-linecap="round" stroke-linejoin="round" stroke-width=".728"/><path d="M772.81 879.398c-4.274 5.16-5.386 11.294-2.483 13.698a3.98 3.98 0 001.095.632c-1.209-2.949.167-7.823 3.667-12.049 3.791-4.577 8.793-6.844 11.902-5.623a4.145 4.145 0 00-1.184-1.65c-2.903-2.404-8.722-.17-12.996 4.992z" fill="none" stroke="#3e4147" stroke-linecap="round" stroke-linejoin="round" stroke-width="1.401"/><path d="M775.089 881.68c-3.5 4.225-4.876 9.1-3.667 12.048 3.109 1.222 8.11-1.046 11.901-5.623 3.5-4.226 4.876-9.1 3.668-12.049-3.11-1.221-8.11 1.046-11.902 5.623z" fill="none" stroke="#3e4147" stroke-linecap="round" stroke-linejoin="round" stroke-width="1.401"/><path d="M1365.117 874.888c-4.275 5.16-5.387 11.294-2.484 13.698a3.98 3.98 0 001.095.633c-1.208-2.95.167-7.823 3.667-12.05 3.791-4.576 8.793-6.844 11.902-5.622a4.146 4.146 0 00-1.184-1.65c-2.903-2.405-8.722-.17-12.996 4.991z" fill="#f7c9a1"/><path d="M1367.395 877.17c-3.5 4.226-4.875 9.1-3.667 12.049 3.11 1.221 8.11-1.046 11.902-5.624 3.5-4.225 4.875-9.1 3.667-12.048-3.11-1.222-8.11 1.046-11.902 5.623z" fill="#f7c9a1"/><path d="M1365.117 874.888c-4.275 5.16-5.387 11.294-2.484 13.698a3.98 3.98 0 001.095.633c-1.208-2.95.167-7.823 3.667-12.05 3.791-4.576 8.793-6.844 11.902-5.622a4.146 4.146 0 00-1.184-1.65c-2.903-2.405-8.722-.17-12.996 4.991z" fill="#d09d2a" stroke="#3e4147" stroke-linecap="round" stroke-linejoin="round" stroke-width=".728"/><path d="M1367.395 877.17c-3.5 4.226-4.875 9.1-3.667 12.049 3.11 1.221 8.11-1.046 11.902-5.624 3.5-4.225 4.875-9.1 3.667-12.048-3.11-1.222-8.11 1.046-11.902 5.623z" fill="#fdbe2a" stroke="#3e4147" stroke-linecap="round" stroke-linejoin="round" stroke-width=".728"/><path d="M1365.117 874.888c-4.275 5.16-5.387 11.294-2.484 13.698a3.98 3.98 0 001.095.633c-1.208-2.95.167-7.823 3.667-12.05 3.791-4.576 8.793-6.844 11.902-5.622a4.146 4.146 0 00-1.184-1.65c-2.903-2.405-8.722-.17-12.996 4.991z" fill="none" stroke="#3e4147" stroke-linecap="round" stroke-linejoin="round" stroke-width="1.401"/><path d="M1367.395 877.17c-3.5 4.226-4.875 9.1-3.667 12.049 3.11 1.221 8.11-1.046 11.902-5.624 3.5-4.225 4.875-9.1 3.667-12.048-3.11-1.222-8.11 1.046-11.902 5.623z" fill="none" stroke="#3e4147" stroke-linecap="round" stroke-linejoin="round" stroke-width="1.401"/><path d="M995.736 212.695a198.539 198.539 0 011.073 27.6c-.348 12.23 4.08 40.747-8.18 60.05-4.737 10.265-24.161 38.138-32.847 42.876s-34.708 10.513-48.492-3.877-28.787-27.814-34.314-38.08-17.795-35.663-20.953-45.929-4.738-24.478-7.107-29.216-6.317-22.9-6.317-30.796 15.109-45.351 15.109-58.775c7.896 30.006 14.897 42.982 25.952 49.3s24.479 7.896 26.847 10.265-3.158-3.948-12.634-13.424-12.186-26.953-14.555-31.691c0 0 20.083 11.16 33.507 18.267s25.268 8.686 28.426 8.686-18.161-10.265-22.899-16.582-8.686-15.003-12.634-16.582l-3.948-1.58s34.744 0 53.695 13.424 30.796 27.637 32.375 33.165 7.896 22.9 7.896 22.9z" fill="#f7c9a1" stroke="#3e4147" stroke-linecap="round" stroke-linejoin="round" stroke-width="1.895"/><path d="M930.591 209.72c.79-14.608 3.444-21.1 13.686-23.875s21.453.186 26.98 16.373c-8.685 9.476-40.666 7.502-40.666 7.502z" fill="#e39d74"/><path d="M936.514 196.296c-3.949 7.107-6.265 15.61-2.711 25.085 13.029 5.527 38.06 0 39.245-13.424-2.626-9.31-8.108-24.295-36.534-11.66z" fill="#fff"/><g clip-path="url(#a)"><circle cx="950.118" cy="204.7" r="14.016" fill="#85c3e9" stroke="#3e4147" stroke-linecap="round" stroke-linejoin="round" stroke-width="1.644"/><circle cx="950.118" cy="204.7" r="9.911" fill="#3e4147"/><circle cx="940.934" cy="205.107" r="2.717" fill="#fff"/></g><path d="M943.904 191.87a21.179 21.179 0 00-9.402 5.575 17.125 17.125 0 00-3.757 7.437 30.535 30.535 0 00-.79 5.516 39.472 39.472 0 00-.063 3.625c.115 3.782.7 3.858.7 3.858s.59.076 1.65-3.556c.27-.903.552-2.043.914-3.43.351-1.393.768-3.045 1.419-4.87a14.928 14.928 0 013.237-5.48 18.379 18.379 0 017.52-4.158c6.713-2.12 12.038-1.825 15.537-.707a16.182 16.182 0 012.361.95c.895.47 1.607.741 2.12 1.019a16.857 16.857 0 012.63 1.865 17.313 17.313 0 002.663 1.97c.461.232.58.143.58.143s.118-.089.006-.595a10.363 10.363 0 00-1.477-3.09 12.494 12.494 0 00-2.577-2.97c-.687-.555-1.426-.987-2.036-1.44a16.48 16.48 0 00-2.84-1.585c-4.305-1.916-10.819-2.485-18.395-.077z" fill="#3e4147"/><path d="M955.222 221.745a45.307 45.307 0 01-20.6-.374c-1.438-.384-2.152-.625-2.52-.73-.373-.1-.405-.05-.405-.05s-.032.05.263.31a8.864 8.864 0 002.35 1.365 28.212 28.212 0 007.088 1.885 39.197 39.197 0 0014.255-.56 26.275 26.275 0 0012.68-6.65 19.704 19.704 0 004.266-6.022 10.905 10.905 0 00.879-2.558c.073-.383.018-.404.018-.404s-.056-.02-.291.29c-.262.296-.59.982-1.436 2.215a25.249 25.249 0 01-4.527 5.31 27.027 27.027 0 01-12.02 5.973zM854.722 227.148c1.263-12.91 2.304-16.86 13.036-20.215s23.77 3.311 25.542 23.075c-22.707 3.577-38.578-2.86-38.578-2.86z" fill="#e39d74"/><path d="M860.117 217.21c-5.118 6.894-5.385 17.655-.981 21.116 5.922 7.896 25.329 7.498 35.199-4.741.79-14.214-15.084-28.013-34.218-16.375z" fill="#fff"/><g clip-path="url(#b)"><circle cx="875.777" cy="224.245" r="13.961" fill="#85c3e9" stroke="#3e4147" stroke-linecap="round" stroke-linejoin="round" stroke-width="1.637"/><circle cx="875.777" cy="224.245" r="9.872" fill="#3e4147"/><circle cx="866.629" cy="224.65" r="2.706" fill="#fff"/></g><path d="M871.517 211.497a25.534 25.534 0 00-9.823 2.92 13.016 13.016 0 00-5.846 5.855 12.048 12.048 0 00-.83 3.095c-.133.894-.201 1.667-.262 2.36l-.27 3.317a22.49 22.49 0 00-.176 3.122c.042.49.177.551.177.551s.135.061.51-.274a8.227 8.227 0 001.78-2.796 26 26 0 001.163-3.324 21.366 21.366 0 011.505-4.306c1.398-2.476 6.06-5.159 12.533-5.805l1.202-.095 1.17-.036a12.588 12.588 0 012.05.117 14.824 14.824 0 013.624 1.01 24.168 24.168 0 015.483 3.314 80.793 80.793 0 016.037 5.478 12.245 12.245 0 002.499 2.04 1.674 1.674 0 00.31.123 1.083 1.083 0 00.143.027c.05.01.171-.001.19-.073.006-.162-.075-.105-.062-.121.027 0-.098.007-.045.023.085-.14.087-.192.042-.441a11.43 11.43 0 00-1.18-2.997 28.368 28.368 0 00-5.293-7.06 23.412 23.412 0 00-6.274-4.454 17.903 17.903 0 00-4.767-1.5 16.344 16.344 0 00-2.79-.21l-1.38.031-1.42.109z" fill="#3e4147"/><path d="M875.957 242.012a12.86 12.86 0 01-1.905.166c-.617.02-1.215.076-1.793.068-1.155-.078-2.245-.033-3.243-.208l-1.452-.18c-.466-.061-.904-.18-1.333-.26l-1.235-.253-1.116-.323a27.325 27.325 0 01-5.823-2.354 13.234 13.234 0 01-1.345-.76 7.77 7.77 0 00-.709-.396c-.318-.151-.36-.11-.36-.11s-.042.042.16.328a7.517 7.517 0 00.531.644 7.171 7.171 0 001.2 1.084 19.52 19.52 0 005.858 3.087l1.165.404 1.294.326c.45.104.913.245 1.405.327l1.535.236a30.873 30.873 0 003.447.281c.616.016 1.254-.036 1.913-.054a13.707 13.707 0 002.034-.171 27.194 27.194 0 0012.06-4.478c.643-.453 1.253-.839 1.766-1.252l1.344-1.2 1.081-.995c.306-.313.545-.627.77-.89 1.765-2.137 1.577-2.284 1.577-2.284s-.188-.147-2.237 1.604c-.26.214-.53.477-.865.737l-1.15.83c-.419.31-.878.65-1.383 1.026-.518.354-1.125.679-1.758 1.072a28.925 28.925 0 01-11.433 3.948zM912.825 169.265c-13.424-7.107-33.507-18.267-33.507-18.267 2.369 4.738 5.08 22.215 14.555 31.691 4.484 4.483 8.067 8.243 10.364 10.727a52.218 52.218 0 008.588-1.251s-16.674-14.372-21.32-26.058c14.766 9.297 36.721 11.396 48.829 11.809-4.126-.25-15.138-2.101-27.51-8.65zM996.782 227.357a198.96 198.96 0 00-1.046-14.662s-6.317-17.372-7.896-22.9-13.424-19.74-32.375-33.164-53.695-13.424-53.695-13.424l3.948 1.58c3.948 1.579 7.896 10.265 12.634 16.582 4.71 6.279 25.792 16.455 22.943 16.576 4.816.136 7.853.006 7.853.006s-22.9-13.424-27.637-27.637c32.468 14.657 48.96 28.336 59.222 38.692 6.328 6.387 12.355 25.008 16.049 38.351zM900.162 193.571c-5.494-1.607-13.471-3.706-20.502-7.724-11.055-6.317-18.056-19.293-25.952-49.299 0 13.424-15.11 50.879-15.11 58.775a93.977 93.977 0 002.23 16.374c.909-19.28 13.564-51.118 13.564-51.118s7.106 20.53 23.689 28.427a50.92 50.92 0 0022.081 4.565z" fill="#e39d74"/><path d="M995.736 212.695a198.539 198.539 0 011.073 27.6c-.348 12.23 4.08 40.747-8.18 60.05-4.737 10.265-24.161 38.138-32.847 42.876s-34.708 10.513-48.492-3.877-28.787-27.814-34.314-38.08-17.795-35.663-20.953-45.929-4.738-24.478-7.107-29.216-6.317-22.9-6.317-30.796 15.109-45.351 15.109-58.775c7.896 30.006 14.897 42.982 25.952 49.3s24.479 7.896 26.847 10.265-3.158-3.948-12.634-13.424-12.186-26.953-14.555-31.691c0 0 20.083 11.16 33.507 18.267s25.268 8.686 28.426 8.686-18.161-10.265-22.899-16.582-8.686-15.003-12.634-16.582l-3.948-1.58s34.744 0 53.695 13.424 30.796 27.637 32.375 33.165 7.896 22.9 7.896 22.9z" fill="none" stroke="#3e4147" stroke-linecap="round" stroke-linejoin="round" stroke-width="1.895"/><path d="M899.111 265.411c2.973 1.39 4.707-1.78 3.542-3.947a32.96 32.96 0 01-2.084-6.782s1.136 4.545 7.575 6.06 8.71-1.894 10.604-3.788 5.302-1.515 7.575-.757 4.908 2.404 6.43-3.154c1.144.503 1.523 11.486-2.643 14.516s-7.953 1.136-9.09 2.65-6.06 5.303-9.089 3.788-4.166-2.651-6.438-1.894-6.382-6.692-6.382-6.692zM900.948 306.947c4.166-12.877 5.302-18.558 8.71-21.588s17.801-5.681 23.86-4.166 14.771 6.438 21.21 11.74c-8.02-3.405-10.984-3.03-15.907-1.893s-21.966 5.302-25.754 6.06-12.498 12.876-12.498 12.876z" fill="#e39d74"/><path d="M841.339 482.826l-7.193-17.961a173.185 173.185 0 00-7.245-16.37 17.211 17.211 0 00-1.162-1.928c-.191-.262-.224-.246-.224-.246s-.032.017.054.33c.085.313.3.916.745 2.112l6.278 16.71c1.672 4.447 3.93 10.455 6.99 18.064 1.341 3.315 2.613 6.304 3.725 8.696a87.21 87.21 0 009.047 15.845 43.984 43.984 0 006.303 6.965 17.55 17.55 0 001.77 1.446c.448.33.754.539.963.672.418.265.448.227.448.227s.03-.038-.288-.417c-.16-.19-.406-.464-.786-.861a33.907 33.907 0 01-1.536-1.648c-2.573-2.862-7.899-8.726-14.238-22.992-1.071-2.376-2.317-5.344-3.651-8.644zM784.444 405.18a146.017 146.017 0 014.827-13.914c1.346-3.325 2.316-5.516 2.943-6.99 1.282-2.935 1.094-3.048 1.094-3.048s-.22-.13-1.936 2.612a65.585 65.585 0 00-3.57 6.793 100.341 100.341 0 00-5.179 14.02 88.484 88.484 0 00-3.017 14.65c-.39 3.619-.552 6.003-.641 7.615-.166 3.214.07 3.243.07 3.243s.234.03.87-3.126c.322-1.57.725-3.97 1.285-7.51a121.524 121.524 0 013.254-14.345zM774.567 568.392c-4.64 4.901-10.186 4.672-13.944 4.671a68.493 68.493 0 01-11.542-1.574c-2.79-.599-4.641-1.072-5.88-1.37-1.238-.303-1.865-.44-2.185-.49-.32-.052-.332-.02-.332-.02s-.013.036.269.198a16.919 16.919 0 002.052.927 58.856 58.856 0 005.79 1.917 57.468 57.468 0 0011.751 2.08 27.724 27.724 0 007.1-.375 14.605 14.605 0 004.249-1.535 23.846 23.846 0 003.947-3.027c2.209-2.021 4.025-3.993 5.48-5.606 5.248-5.886 8.802-10.587 11.446-14.126 2.624-3.565 4.279-5.976 5.305-7.706l.104-.2a.459.459 0 00.051-.225.416.416 0 00-.25-.36.327.327 0 00-.174-.027.44.44 0 00-.207.072l-.05.04a.964.964 0 00-.09.096l-.22.281-.355.5-.544.812c-.3.465-.49.784-.608 1.001-.238.435-.2.465-.2.465s.039.029.396-.314c.179-.171.437-.436.813-.84l.657-.715.406-.437.219-.222c.006-.027.058-.008.012-.053a1.235 1.235 0 01-.163-.21c-.059-.029-.025-.091-.058-.076a.375.375 0 01-.178-.06l-.174-.071-.077.111c-1.148 1.53-3 3.838-5.75 7.26-2.777 3.405-6.442 7.997-11.678 13.761-1.455 1.57-3.263 3.503-5.388 5.447zM710.143 771.917c.316-1.354.779-2.666 1.078-3.82.314-1.15.559-2.152.752-3.008a126.184 126.184 0 003.387-17.603 17.049 17.049 0 00.107-2.25c-.015-.323-.051-.328-.051-.328s-.036-.004-.138.304c-.1.308-.262.928-.555 2.169-.616 2.47-1.667 7.466-4.362 17.276l-.9 2.927c-.33 1.126-.793 2.34-1.165 3.91a20.566 20.566 0 00-.418 2.518l-.058.582-.025.283-.03.489c-.083 1.1-.08 2.156-.073 3.173.089 4.06.546 7.456.603 10.325.003.166.013.365.032.59a3.417 3.417 0 00.09.622 5.384 5.384 0 00.354 1.123 8.708 8.708 0 001.05 1.818 16.72 16.72 0 002.383 2.57 31.255 31.255 0 004.046 3.02 26.641 26.641 0 004.05 2.177c.614.245.643.189.643.189s.026-.05-.496-.446c-.514-.405-1.598-1.133-3.654-2.697a38.925 38.925 0 01-3.7-3.185 16.458 16.458 0 01-2.08-2.462 5.523 5.523 0 01-1.119-3.33c.028-2.999-.357-6.41-.388-10.332.006-.978.015-1.99.103-3.024l.034-.46.03-.265.066-.54a22.04 22.04 0 01.404-2.315zM738.276 830.938a51.406 51.406 0 01-3.905-1.811c-1.188-.606-2.28-1.285-3.303-1.913-2.038-1.28-3.77-2.471-5.247-3.478-4.161-2.921-7.233-5.205-9.56-6.885-2.324-1.686-3.89-2.792-4.95-3.508-2.122-1.431-2.212-1.316-2.212-1.316s-.089.115 1.814 1.825c.952.855 2.399 2.113 4.616 3.945a219.234 219.234 0 009.32 7.296c1.452 1.073 3.168 2.323 5.235 3.668 1.042.663 2.15 1.372 3.42 2.032 1.254.66 2.587 1.291 4.054 1.899a23.826 23.826 0 007.14 1.868 12.395 12.395 0 005.091-.57 18.155 18.155 0 002.114-.905c.611-.29 1.245-.541 1.857-.778 2.469-.935 4.716-1.63 6.68-2.234l5.122-1.51 3.585-1.031.489.008.53-.014c.342-.019.66-.046.955-.092a7.43 7.43 0 001.506-.366 3.95 3.95 0 001.587-.966c.516-.593.408-.661.425-.65-.01-.017-.034.001-.623.408-.61.367-1.908 1.025-4.936.669l-1.785.362-2.047.448c-1.485.337-3.216.75-5.222 1.28-2.006.538-4.288 1.17-6.863 2.083-.645.234-1.306.48-1.988.787l-.988.438a6.557 6.557 0 01-.956.362 10.73 10.73 0 01-4.38.43 23.131 23.131 0 01-6.575-1.78zM756.625 817.78a33.755 33.755 0 01-7.954-2.944c-4.481-2.339-7.773-4.325-10.306-5.688a55.701 55.701 0 00-5.461-2.715 10.343 10.343 0 00-2.155-.698c-.32-.06-.33-.025-.33-.025s-.01.035.266.204c.278.162.839.457 1.933 1.098 1.097.633 2.718 1.634 5.14 3.167 2.438 1.514 5.621 3.633 10.135 6.133a28.743 28.743 0 008.305 3.314 39.733 39.733 0 004.276.745 53.117 53.117 0 005.593.43l.712.007.696-.096 1.219-.18 2.31-.363c2.97-.478 5.507-.95 7.675-1.402 2.168-.453 3.967-.89 5.455-1.325a28.504 28.504 0 003.548-1.316c3.606-1.547 3.539-1.73 3.539-1.73s-.067-.182-3.819.965c-.952.292-2.076.665-3.552.983-1.477.322-3.272.654-5.435 1.012a289.25 289.25 0 01-7.66 1.147l-2.304.31-1.213.157-.552.069-.568-.017a54.827 54.827 0 01-5.398-.482 49.188 49.188 0 01-4.095-.76zM755.656 797.784a64.409 64.409 0 0010 4.239c1.507.427 1.604.208 1.604.208s.096-.214-1.21-1.07a105.83 105.83 0 00-9.547-5.073l-9.595-4.807a11.103 11.103 0 00-1.237-.556c-.206-.059-.249-.018-.249-.018s-.043.04.046.233a3.734 3.734 0 00.89 1.113c1.159 1.113 3.74 2.958 9.298 5.73z" fill="#3e4147"/><path d="M755.025 787.768a82.01 82.01 0 01-4.272-13.26 15.84 15.84 0 00-.437-1.712c-.097-.25-.156-.25-.156-.25s-.06-.001-.14.254a6.34 6.34 0 00-.209 1.811c.01 2.046.4 6.289 3.45 13.847l1.807 4.604 1.524 3.704.781.507.538.338.978.604 1.594.943c.913.52 1.542.84 1.974 1.032.865.386.945.27.945.27s.08-.115-.59-.786c-.334-.335-.856-.809-1.668-1.476l-1.45-1.154-1.753-1.34-.003-.03a.06.06 0 00-.005-.02l-.034-.099-.14-.4-.3-.851-.688-1.902-1.746-4.634zM765.587 769.48a1.637 1.637 0 011.14.428 10.185 10.185 0 011.193 1.033l1.947 1.967a16.658 16.658 0 002.612 2.208 3.827 3.827 0 001.16.574c.192.044.228-.003.228-.003s.037-.046-.042-.228a6.015 6.015 0 00-.706-1.042l-2.067-2.582c-.498-.612-1.073-1.336-1.835-2.161a10.362 10.362 0 00-1.392-1.284 4.77 4.77 0 00-1.032-.599 2.833 2.833 0 00-1.492-.184l-.401.083c-.11.031-.17.063-.256.094l-.473.184-.899.354-1.62.655a88.77 88.77 0 00-2.589 1.11 31.768 31.768 0 00-3.021 1.511c-1.233.728-1.144.948-1.144.948s.089.22 1.489-.066a31.516 31.516 0 003.232-.894 87.147 87.147 0 002.637-.9l1.625-.592.895-.336.469-.179c.074-.026.17-.069.228-.083a.57.57 0 00.114-.016zM730.747 837.122a24.099 24.099 0 00-2.792-.014l-.322.02-.08.006h-.002l-.001.002-.007.002h-.003l-.108-.08-.919-.667a161.19 161.19 0 00-3.095-2.187c-1.77-1.217-2.987-1.981-3.822-2.46-1.669-.955-1.811-.765-1.811-.765s-.142.19 1.243 1.524c.692.667 1.766 1.621 3.431 2.98a161.1 161.1 0 002.966 2.36l.898.694.363.277.237.18c.074.078.192.013.287.027l.83-.041c.808-.027 1.67-.028 2.581.033a21.518 21.518 0 014.734.848c.677.198 1.295.41 1.89.616a9.812 9.812 0 001.867.403 22.185 22.185 0 004.635.056c1.929-.2 1.92-.458 1.92-.458s-.008-.216-1.896-.49c-.934-.155-2.372-.287-4.395-.685a9.67 9.67 0 01-1.523-.435c-.583-.24-1.238-.5-1.956-.738a20.342 20.342 0 00-5.15-1.008zM1202.737 746.375l-.204-.897a9.121 9.121 0 00-.281-.909 14.997 14.997 0 00-.7-1.59l-.686-1.34a3.67 3.67 0 01-.364-1.172 22.695 22.695 0 00-1.833-4.574 25.15 25.15 0 00-3.181-4.84 8.015 8.015 0 00-1.551-1.483c-.26-.173-.305-.134-.305-.134s-.044.04.08.326c.12.286.42.806 1 1.836a53.462 53.462 0 012.514 4.983 25.793 25.793 0 011.51 4.299l.057.302.088.422a5.812 5.812 0 00.311.82l.68 1.386a14.049 14.049 0 01.602 1.4 7.512 7.512 0 01.222.726l.186.827c.467 2.279.692 4.341.916 6.157.115.906.204 1.767.395 2.607l.476 2.139c.599 2.623 1.056 4.362 1.4 5.514.687 2.303.92 2.259.92 2.259s.233-.044.01-2.44c-.111-1.198-.337-2.984-.762-5.647-.11-.665-.23-1.385-.358-2.166-.13-.709-.189-1.546-.278-2.46a57.3 57.3 0 00-.864-6.351zM1205.003 797.534a64.002 64.002 0 01-4.025 1.581q-2.641.945-5.274 1.702l-1.31.367-.653.174-.322.082-.039.01c-.465-1.623.608 2.218.509 1.819l.02-.007.081-.026.162-.052 2.578-.831 5.047-1.628 1.24-.4.502-.162h.002l.162.05 2.444.759 4.783 1.485c.053.012.318.11.496.143l.492-.058.613-.076 1.216-.157 2.402-.335c1.588-.233 3.15-.484 4.69-.775a27 27 0 004.607-1.18 37.503 37.503 0 004.021-2.154 20.31 20.31 0 003.546-2.732 9.695 9.695 0 002.43-3.792c.428-1.252.9-2.505 1.35-3.725l5.162-13.589 2.33-6.328.92-2.572.398-1.16a5.268 5.268 0 01.45-.87c1.522-2.366 2.633-3.996 3.216-5.143a9.774 9.774 0 00.891-2.085c.082-.316.048-.33.048-.33s-.034-.013-.22.25c-.18.265-.53.796-1.267 1.823-.73 1.047-1.934 2.472-3.672 4.834a5.99 5.99 0 00-.633 1.092l-.453 1.118-1.034 2.521-2.53 6.249-5.251 13.572c-.461 1.23-.935 2.464-1.389 3.774a7.892 7.892 0 01-2.013 3.089 25.776 25.776 0 01-7.01 4.474 26.127 26.127 0 01-4.239 1.054c-1.502.28-3.045.523-4.615.75l-2.377.326-1.204.153-.605.073c-.27.016.018.035-.212-.015l-4.78-1.494-2.443-.763-.454-.142a1.132 1.132 0 00-.307-.076l-.307.098-.732.236-1.24.398-5.05 1.623-2.578.828-.162.052-.081.027-.02.006c-.125-.391.974 3.443.52 1.817l.045-.011.34-.087.672-.178 1.341-.375q2.683-.774 5.388-1.736a65.58 65.58 0 004.14-1.626 42.52 42.52 0 004.822-2.42 13.009 13.009 0 002.002-1.559 14.539 14.539 0 001.462-1.54 41.748 41.748 0 004.352-6.512c1.232-2.2 2.323-4.38 3.341-6.48 1.02-2.097 1.967-4.121 2.921-5.98a27.082 27.082 0 011.47-2.576c.559-.8 1.127-1.569 1.69-2.298 2.362-3.075 4.603-5.657 6.527-7.968l.709-.86.343-.425a2.82 2.82 0 00.344-.494 5.158 5.158 0 00.309-.594l.184-.529a9.376 9.376 0 00.286-1.01c.323-1.305.506-2.495.67-3.598.611-4.403.76-7.343.866-9.306.166-3.926-.047-3.941-.047-3.941s-.172-.012-.759 3.86c-.316 1.93-.687 4.852-1.47 9.152-.206 1.07-.433 2.235-.77 3.43a8.229 8.229 0 01-.28.883l-.16.428c-.056.138-.124.208-.178.32a1.552 1.552 0 01-.265.364l-.342.402-.717.828c-1.968 2.253-4.268 4.814-6.71 7.93a61.349 61.349 0 00-1.752 2.368 28.428 28.428 0 00-1.6 2.778c-.986 1.91-1.937 3.93-2.955 6.016-1.015 2.085-2.095 4.233-3.299 6.377a40.111 40.111 0 01-4.147 6.206 13.284 13.284 0 01-2.995 2.7 40.794 40.794 0 01-4.605 2.309zM1255.075 768.276c-.62 1.526-1.306 2.884-1.878 4.06l-1.51 3.065c-.851 1.744-1.388 2.929-1.71 3.739-.65 1.618-.45 1.735-.45 1.735s.209.122 1.274-1.267a39.84 39.84 0 002.29-3.442 69.95 69.95 0 001.717-2.998 42.794 42.794 0 002.031-4.198 15.736 15.736 0 00.716-2.469c.167-.754.31-1.457.43-2.113.245-1.311.424-2.436.564-3.403.278-1.932.4-3.227.45-4.096.1-1.734-.11-1.785-.11-1.785s-.25-.06-.82 1.603c-.284.829-.639 2.085-1.09 3.978l-.77 3.335-.478 2.055a15.77 15.77 0 01-.656 2.201zM1209.25 542.123a35.118 35.118 0 00-.825 7.335 64.544 64.544 0 00.139 5.475c.2 3.088.481 5.125.69 6.482.45 2.71.686 2.688.686 2.688s.236-.02.26-2.757c.027-1.368-.018-3.415-.038-6.469-.012-1.526-.013-3.304.076-5.361a37.835 37.835 0 01.859-6.964 27.276 27.276 0 011.075-3.558 25.206 25.206 0 011.29-2.977 30.178 30.178 0 012.859-4.405 50.132 50.132 0 003.844-5.277 6.321 6.321 0 00.888-2.306c.044-.354-.013-.37-.013-.37s-.057-.016-.264.264c-.2.28-.555.848-1.394 1.878-.83 1.045-2.256 2.457-4.307 4.809a26.953 26.953 0 00-3.213 4.553 24.624 24.624 0 00-1.443 3.168 26.976 26.976 0 00-1.169 3.792zM1109.306 462.788c1.428 1.388 2.557 2.48 3.42 3.259 7.194 7.218 10.77 10.872 12.644 12.612 1.86 1.756 1.966 1.66 1.966 1.66s.11-.1-1.491-2.098c-1.618-1.984-4.883-5.917-11.927-13.342a58.522 58.522 0 00-3.291-3.45c-.415-.411-.823-.784-1.201-1.135l-.28-.258-.454-.403-2.331-2.049-7.808-6.797c-4.445-3.832-7.447-6.342-9.474-7.985-4.054-3.287-4.209-3.108-4.209-3.108s-.155.18 3.582 3.818c1.868 1.819 4.709 4.503 9.028 8.46l7.651 6.945 2.304 2.071.31.282.13.128.267.26z" fill="#3e4147"/><path d="M846.615 918.81c3.764-15.79 37.629-97.863 39.186-106.204M1098.18 791.488c4.962 22.783 36.72 118.928 38.46 122.844s12.182 13.844 12.182 13.844" fill="none" stroke="#3e4147" stroke-linecap="round" stroke-linejoin="round" stroke-width="1.895"/><path d="M1166.302 810.912a97.106 97.106 0 002.921-3.763l3.643-4.47 1.39-1.675.423-.552.328-.397.176-.212.091-.11c.026-.028.08-.1.057-.056a6.718 6.718 0 00-.215.75c-.06.262-.115.545-.161.84l-.11.633-.088.612a11.063 11.063 0 00-.097 1.6c.02.676.094.677.094.677s.047 0 .203-.644c.081-.322.195-.803.393-1.514l.168-.577.232-.745a24.498 24.498 0 011.026-2.71 4.166 4.166 0 01.09-1.45c.032-.056-.04-.015-.076-.012l-.126.03-.255.046a3.742 3.742 0 01-.527.04c-.722.736-1.47 1.485-2.37 2.486l-.951 1.03-.83.932c-1.15 1.277-2.4 2.738-3.8 4.384-.826.902-1.852 2.09-3.104 3.637l-3.55 4.509a548.57 548.57 0 00-6.304 8.21c-3.528 4.689-5.805 7.87-7.292 10.014-2.97 4.292-2.774 4.438-2.774 4.438s.183.138 3.527-3.864c1.675-1.998 4.139-5.033 7.802-9.607l6.461-8.064 3.605-4.446zM1154.478 804.236c12.616-6.525 12.181-7.367 12.181-7.367s-.435-.842-13.052 5.684-12.18 7.367-12.18 7.367.435.842 13.051-5.684zM813.68 817.858c-1.316-1.08-2.376-1.895-3.188-2.463-4.01-3.177-7.033-5.515-9.453-7.155a16.742 16.742 0 00-5.633-2.559 5.32 5.32 0 00-2.295-.102c-.323.081-.31.131-.31.131s.008.021.321.059a9.242 9.242 0 012.107.533 19.799 19.799 0 015.124 2.917c2.235 1.728 5.17 4.207 9.085 7.469a65.101 65.101 0 003.039 2.634l12.178 9.913c4.554 3.692 7.62 6.118 9.69 7.705 4.137 3.177 4.288 2.999 4.288 2.999s.155-.183-3.678-3.723c-1.917-1.77-4.832-4.378-9.274-8.207a801.049 801.049 0 00-7.884-6.701l-4.117-3.45zM832.003 817.298c-18.708-6.96-19.038-6.073-19.038-6.073s-.33.889 18.377 7.85 19.037 6.072 19.037 6.072.33-.888-18.376-7.849zM1006.82 948.97c-27.604-5.915-49.355-10.095-65.558-12.657-5.07-.699-8.869-1.228-11.753-1.424l-3.632-.28c-1.005-.033-1.813-.015-2.455-.011-2.571.035-2.565.181-2.565.181s.006.146 2.533.464l2.402.28 3.58.554c2.834.371 6.6 1.064 11.626 1.884 16.13 2.69 37.842 6.952 65.423 12.861a2934.952 2934.952 0 0131.7 7.014c15.283 3.43 22.922 5.14 26.763 5.913 3.834.8 3.89.613 3.89.613s.054-.186-3.683-1.4c-3.744-1.188-11.292-3.351-26.556-6.927a2269.467 2269.467 0 00-31.715-7.066zM1011.386 845.65l-.41-4.83-.2-2.393-.102-1.26-.095-1.189-.048-.594-.012-.148c-.01-.041.014-.129-.054-.09l-.29.064-3.209.714c-.76.16-1.51.356-2.272.487-1.53.229-3.045.492-4.56.69a106.052 106.052 0 01-17.844.534 149.607 149.607 0 01-14.963-1.52c-2.419-.384-4.807-.783-7.144-1.268l-1.746-.368-.433-.094-.807-.19-1.653-.398c-.014.556.016 1.166.022 1.743l.029 1.227.047 1.767c.268 9.392.679 18.302 1.168 26.742q1.483 25.32 3.896 45.026c.633 5.074 1.296 8.857 1.752 11.696.51 2.833.914 4.71 1.193 5.959.567 2.496.71 2.472.71 2.472s.144-.025-.072-2.574c-.104-1.275-.318-3.177-.647-6.027-.278-2.858-.773-6.648-1.279-11.723q-2.309-19.67-3.75-44.932a930.23 930.23 0 01-1.12-26.688c.17-3.35-1.087-2.254 2.317-1.815 2.371.495 4.787.902 7.235 1.293a151.005 151.005 0 0015.153 1.552 107.707 107.707 0 0018.165-.536c1.55-.202 3.104-.47 4.672-.706.782-.134 1.556-.334 2.338-.5l1.172-.26.269-.06-.01.002-.007.001.7 8.357a2021.207 2021.207 0 003.31 34.947c1.26 12.19 2.627 23.735 3.77 32.152 2.163 15.543 4.041 23.224 5.296 26.972.331.934.605 1.625.816 2.14.248.504.424.832.548 1.048.248.43.291.408.291.408s.044-.021-.065-.504a18.73 18.73 0 00-.298-1.118l-.513-2.19c-.83-3.803-2.24-11.482-4.247-27.003-1.124-8.394-2.477-19.921-3.727-32.1a2127.605 2127.605 0 01-3.292-34.915zM959.475 573.67c-3.088-1.724-5.839-3.643-8.49-5.361-2.563-1.85-5.019-3.529-7.2-5.273-4.446-3.372-8.105-6.552-11.234-9.235-7.668-6.704-11.473-10.131-13.507-11.692-2.006-1.593-2.102-1.483-2.102-1.483s-.097.109 1.667 1.96c1.793 1.82 5.294 5.535 12.835 12.464 3.101 2.75 6.75 5.997 11.22 9.437 2.19 1.776 4.666 3.49 7.255 5.37 2.68 1.75 5.463 3.697 8.598 5.449a117.055 117.055 0 0014.78 7.37 97.108 97.108 0 0017.453 5.275c2.185.398 3.998.757 5.52.974l3.744.325c3.926.295 3.937.101 3.937.101s.012-.194-3.832-.909l-3.662-.637c-1.489-.317-3.26-.773-5.394-1.255a115.477 115.477 0 01-17.06-5.583 120.732 120.732 0 01-14.528-7.296zM941.46 692.47q27.43-15.759 47.993-29.845c13.736-9.352 25.186-18.125 34.577-26.002 3.863-3.361 6.766-5.87 8.783-7.933 2.058-2.015 3.404-3.383 4.284-4.313 1.76-1.858 1.658-1.963 1.658-1.963s-.102-.104-2.101 1.494c-1 .798-2.473 2.022-4.643 3.895-2.127 1.92-5.128 4.292-9.051 7.54-9.39 7.785-20.825 16.477-34.538 25.765q-20.567 13.934-47.908 29.72l-22.658 12.928c-1.76 1.044-3.493 2.04-5.166 3.179a10.096 10.096 0 00-1.257.904 4.428 4.428 0 00-.663.664 2.25 2.25 0 00-.554 1.209 1.407 1.407 0 00.46 1.149 2.072 2.072 0 00.551.364 3.874 3.874 0 00.592.212 8.072 8.072 0 001.629.202 38.121 38.121 0 005.618-.37c1.79-.224 3.517-.5 5.19-.791a181.418 181.418 0 0017.709-4.143c4.25-1.23 7.033-2.227 8.862-2.963a22.176 22.176 0 003.126-1.472c.423-.263.403-.307.403-.307s-.02-.044-.499.079c-.48.115-1.415.4-3.293.93-1.878.528-4.7 1.305-8.969 2.345-4.268 1.022-9.979 2.38-17.656 3.71-1.651.284-3.354.552-5.102.768a36.679 36.679 0 01-5.316.347 7.088 7.088 0 01-1.172-.13l-.07-.016-.003-.002-.003-.008.005-.007c.05-.045.211-.218.37-.343a8.899 8.899 0 011.115-.792c1.567-1.064 3.299-2.061 5.042-3.091l22.656-12.912zM926.554 753.928c-5.298-1.688-10.481-3.492-15.484-5.519-2.497-1.018-4.954-2.085-7.32-3.262-1.179-.59-2.349-1.197-3.448-1.873a15.741 15.741 0 01-3.007-2.2 11.037 11.037 0 01-1.179-1.384 3.302 3.302 0 01-.198-.297l-.07-.126v-.003h.158c.052-.007.242.02.368.03a4.018 4.018 0 01.433.061 18.518 18.518 0 011.806.412c2.437.688 4.848 1.604 7.222 2.528 4.75 1.87 9.38 3.892 13.93 5.902l3.398 1.514c.552.259 1.2.46 1.795.69l.91.333.921.231 1.838.458 1.842.311c1.224.238 2.448.338 3.666.475a122.216 122.216 0 0014.384.401c9.418-.27 18.493-1.123 27.229-2.241a442.262 442.262 0 0048.46-9.045 301.977 301.977 0 0040.459-12.621c9.481-3.932 13.853-6.728 15.983-8.143 2.125-1.443 2.045-1.565 2.045-1.565s-.08-.122-2.367 1.006a172.908 172.908 0 01-16.284 7.153 302.13 302.13 0 01-40.254 12.458 443.24 443.24 0 01-48.272 8.937c-8.694 1.103-17.72 1.942-27.045 2.202a120.583 120.583 0 01-14.15-.403c-1.184-.134-2.38-.232-3.55-.461l-1.768-.3-1.727-.432-.866-.216-.822-.304c-.553-.217-1.091-.37-1.66-.637l-3.403-1.52c-4.563-2.017-9.204-4.046-14.003-5.938-2.407-.937-4.833-1.864-7.408-2.594a20.266 20.266 0 00-2.006-.456 5.51 5.51 0 00-.537-.074 4.637 4.637 0 00-.608-.04 2.5 2.5 0 00-.8.096 1.797 1.797 0 00-.442.135l-.38.233a1.474 1.474 0 00-.409 1.64 2.399 2.399 0 00.295.762 4.188 4.188 0 00.336.529 12.787 12.787 0 001.377 1.624 17.352 17.352 0 003.38 2.498c1.167.716 2.37 1.34 3.583 1.948 2.43 1.208 4.923 2.29 7.453 3.323 5.065 2.053 10.287 3.87 15.623 5.57a270.362 270.362 0 00101.703 12.852c7.845-.472 13.704-1.146 18.082-1.744 4.378-.61 7.279-1.135 9.201-1.548a30.576 30.576 0 003.34-.843c.47-.162.46-.21.46-.21s-.01-.047-.504-.034c-.494.012-1.474.087-3.421.282l-9.241.926c-4.377.41-10.216.93-18.019 1.325a269.214 269.214 0 01-101.028-12.812z" fill="#3e4147"/><path d="M988.093 794.35a251.753 251.753 0 01-38.512-7.362 249.018 249.018 0 01-32.88-11.406 175.586 175.586 0 01-26.868-14.23l-2.915-1.934-2.782-2.002a50.687 50.687 0 01-2.678-2.028c-.86-.696-1.755-1.339-2.56-2.064-.813-.714-1.647-1.394-2.421-2.115-.755-.738-1.547-1.434-2.25-2.183a28.164 28.164 0 01-2.003-2.267l-.46-.575-.35-.576a7.904 7.904 0 01-.645-1.28 85.967 85.967 0 01-3.961-10.993c-.806-2.74-1.281-4.593-1.623-5.822-.67-2.463-.803-2.442-.803-2.442s-.154.026.17 2.57c.17 1.272.459 3.176 1.099 5.995a68.764 68.764 0 003.588 11.357 9.52 9.52 0 00.711 1.431c.147.243.292.497.446.73l.496.631a29.663 29.663 0 002.114 2.416c.733.785 1.536 1.497 2.314 2.262.793.744 1.639 1.44 2.47 2.173.821.745 1.724 1.4 2.599 2.112a51.885 51.885 0 002.714 2.07l2.817 2.04q1.46.974 2.946 1.968a176.24 176.24 0 0027.106 14.439 249.155 249.155 0 0033.116 11.536 252.287 252.287 0 0038.795 7.433c24.143 2.736 46.393 1.464 63.873-2.297 15.433-3.403 22.493-7.382 25.899-9.268 3.403-1.991 3.3-2.157 3.3-2.157s-.104-.165-3.666 1.43c-3.572 1.493-10.665 4.974-25.92 8.188-17.261 3.684-39.318 4.937-63.276 2.22z" fill="#3e4147"/><path d="M1072.163 778.687a151.015 151.015 0 0026.467-15.524c1.024-.783 1.975-1.535 2.829-2.31l.637-.556.592-.616.567-.6.465-.6a37.832 37.832 0 002.86-4.277 27.3 27.3 0 002.46-5.63 14.44 14.44 0 00.525-2.196c.042-.322.007-.333.007-.333s-.034-.01-.188.275c-.155.284-.417.87-.947 2.023a39.158 39.158 0 01-2.877 5.237 43.54 43.54 0 01-2.977 3.997l-.472.561-.518.501-.533.52-.628.511c-.832.709-1.78 1.415-2.803 2.157a163.715 163.715 0 01-26.263 15.14c-5.098 2.313-9.795 4.236-13.676 5.587-14.702 5.177-22.555 5.995-26.382 6.603-3.867.556-3.864.751-3.864.751s.002.195 3.94.06c3.893-.188 11.966-.562 26.92-5.67 3.942-1.342 8.703-3.271 13.86-5.611zM928.465 260.909c-1.324-.623-2.509-1.22-3.65-1.64-1.126-.365-2.396-.802-3.656.053a2.304 2.304 0 00-.761 1.471 7.03 7.03 0 00-.073 1.052c0 .604.03 1.07.06 1.444.116 1.493.336 1.522.336 1.522s.25.031.608-1.449c.09-.369.178-.835.286-1.391a8.493 8.493 0 01.202-.857c.088-.278.22-.5.313-.52a1.497 1.497 0 01.741-.039 6.3 6.3 0 011.29.406c.987.413 2.126 1.015 3.5 1.664a18.634 18.634 0 002.04.84 8.018 8.018 0 001.058.267 1.896 1.896 0 001.558-.401 3.743 3.743 0 001.049-1.78 9.684 9.684 0 00.319-1.445 15.23 15.23 0 00.096-3.65c-.168-1.52-.426-1.515-.426-1.515s-.217.005-.52 1.465c-.167.723-.333 1.833-.718 3.385a10.428 10.428 0 01-.376 1.195 2.392 2.392 0 01-.558.93c-.079.028.016.017-.105-.004a7.055 7.055 0 01-.777-.223c-.56-.196-1.176-.472-1.836-.78zM902.02 258.158a16.24 16.24 0 01-1.294-4.719 10.236 10.236 0 01.361-3.566c.604-1.992 1.306-3.376 1.575-4.348a6.125 6.125 0 00.349-1.752c0-.264-.057-.282-.057-.282s-.056-.018-.223.184a15.16 15.16 0 00-.934 1.463l-.959 1.616a17.372 17.372 0 00-1.271 2.625 10.688 10.688 0 00-.652 4.174 16.295 16.295 0 001.359 5.34 16.68 16.68 0 002.854 4.732 5.876 5.876 0 00.498.465 3.334 3.334 0 00.644.39c.382.17.703.273 1.02.385.624.211 1.17.399 1.668.591a10.155 10.155 0 013.714 2.284c.66.657.939 1.07 1.123 1.25.184.184.24.164.24.164s.056-.02.031-.284a3.894 3.894 0 00-.648-1.714 8.655 8.655 0 00-3.82-3.165 28.442 28.442 0 00-1.705-.737c-.293-.122-.613-.246-.867-.376a1.345 1.345 0 01-.267-.178c-.097-.107-.199-.176-.304-.31a16.925 16.925 0 01-2.435-4.232z" fill="#3e4147"/><path d="M901.174 269.81a4.342 4.342 0 004.306-.711 3.563 3.563 0 001.03-1.589.859.859 0 01.304-.478 2.757 2.757 0 011.43-.139c.477.05.88.129 1.203.192a6.632 6.632 0 001.19.173c.188-.003.217-.053.217-.053s.03-.053-.083-.21a3.288 3.288 0 00-.982-.794 6.161 6.161 0 00-1.266-.573 3.602 3.602 0 00-2.37-.052 2.43 2.43 0 00-1.265 1.363 1.937 1.937 0 01-.585.78 2.674 2.674 0 01-2.474.313 1.65 1.65 0 01-.535-.305c-.073-.05-.1-.13-.161-.184l-.195-.32c-.254-.465-.486-.95-.688-1.411l-1.04-2.438c-.585-1.397-1.005-2.329-1.324-2.937-.632-1.219-.854-1.153-.854-1.153s-.232.068-.049 1.44a22.93 22.93 0 00.72 3.183c.214.743.488 1.603.872 2.602a15.473 15.473 0 00.724 1.622l.27.463a3.113 3.113 0 001.605 1.216zM920.894 286.005a26.013 26.013 0 00-8.298 3.285 5.432 5.432 0 00-.85.712c-.234.25-.445.498-.636.741-.392.487-.74.964-1.07 1.428a77.733 77.733 0 00-1.781 2.628 167.225 167.225 0 00-2.705 4.301c-1.495 2.458-2.447 4.122-3.066 5.242-1.235 2.24-1.113 2.32-1.113 2.32s.123.08 1.656-1.97c.767-1.024 1.882-2.584 3.524-4.938l2.904-4.137a97.03 97.03 0 011.842-2.516c.335-.44.685-.89 1.057-1.325q.278-.335.57-.63a3.689 3.689 0 01.606-.476 30.325 30.325 0 017.8-2.822c1.52-.351 2.907-.624 4.041-.78a34.268 34.268 0 0110.04-.064 49.867 49.867 0 017.415 1.816 91.931 91.931 0 018.61 3.319c1.786.783 2.682 1.182 3.145 1.355.46.178.485.139.485.139s.026-.044-.362-.354a24.741 24.741 0 00-2.903-1.868 57.253 57.253 0 00-8.506-3.948 45.873 45.873 0 00-7.608-2.121 34.431 34.431 0 00-10.569-.105 38.537 38.537 0 00-4.228.768z" fill="#3e4147"/><path d="M921.114 164.135c11.057 2.761 15.794-1.187 25.665-.397a52.611 52.611 0 0118.556 5.527s-9.475-9.08-21.32-10.66-23.294 4.343-23.294 4.343zM869.66 176.955c-5.398 1.786-10.136.996-16.848 3.76s-14.87 12.368-13.95 18.926c.76-10.388 1.316-16.557 6.449-20.9s16.323-6.73 24.349-1.786z" fill="#8f6547" stroke="#3e4147" stroke-linecap="round" stroke-linejoin="round" stroke-width="1.895"/><circle cx="946.581" cy="216.051" r="32.178" fill="none" stroke="#3e4147" stroke-linecap="round" stroke-linejoin="round" stroke-width="3.159"/><circle cx="872.324" cy="234.969" r="32.178" fill="none" stroke="#3e4147" stroke-linecap="round" stroke-linejoin="round" stroke-width="3.159"/><path fill="none" stroke="#3e4147" stroke-linecap="round" stroke-linejoin="round" stroke-width="3.159" d="M971.19 195.327l31.549 6.428M831.097 232.831l15.546-1.333"/><path d="M829.818 177.92l-.274-2.817c-.041-.463-.1-.922-.126-1.38l-.047-1.364-.093-2.67.05-2.608c-.005-1.717.177-3.363.263-4.968.203-1.588.326-3.142.63-4.608a54.995 54.995 0 015.071-14.757c4.413-9.236 5.772-14.285 6.397-16.749.604-2.494.463-2.533.463-2.533s-.14-.038-1.077 2.335a164.223 164.223 0 01-7.29 16.23c-.988 2.023-2.052 4.26-3.017 6.773-.503 1.25-.915 2.59-1.347 3.978-.357 1.407-.757 2.861-1.004 4.396-.325 1.524-.462 3.12-.678 4.76-.097 1.644-.288 3.342-.29 5.09l-.057 2.661.09 2.751.047 1.405c.027.471.086.942.128 1.418l.281 2.894a88.984 88.984 0 004.213 17.51 94.133 94.133 0 007.595 16.589l.42.702.21.34.156.244.394 1.303.742 2.422 1.138 3.56c1.237 3.723 1.425 3.672 1.425 3.672s.188-.051-.64-3.886l-.828-3.644-.593-2.464-.37-1.5-.423-.752-.381-.703a111.178 111.178 0 01-7.097-16.484 89.784 89.784 0 01-4.08-17.146zM852.195 134.022c1.061 4.345 1.789 7.651 2.44 10.107a49.96 49.96 0 001.573 5.15 9.262 9.262 0 00.855 1.816c.165.245.222.227.222.227s.056-.018.061-.313a13.795 13.795 0 00-.222-1.975c-.175-1.112-.466-2.767-.929-5.254-.475-2.485-1.084-5.806-2.16-10.215a56.71 56.71 0 00-1.712-5.786c-.615-1.65-1.168-2.991-1.648-4.173-.963-2.344-1.66-3.887-2.163-4.902-1.004-2.03-1.227-1.95-1.227-1.95s-.223.081.337 2.276c.28 1.097.756 2.723 1.554 5.132l1.436 4.219c.531 1.594 1.045 3.472 1.583 5.64zM870.25 140.372c-1.656-2.145-3.009-4.16-4.265-5.875-1.25-1.721-2.362-3.176-3.36-4.387a57.166 57.166 0 00-4.451-4.896c-2.026-1.916-2.203-1.748-2.203-1.748s-.166.16 1.49 2.373l3.898 5.248a196.578 196.578 0 013.145 4.457c1.205 1.732 2.526 3.758 4.252 5.993a33.295 33.295 0 002.637 3.014c.88.872 1.718 1.66 2.538 2.365a39.08 39.08 0 004.477 3.355 51.552 51.552 0 005.812 3.188c2.52 1.171 2.638.961 2.638.961s.114-.203-2.166-1.782c-1.129-.801-2.89-1.905-5.382-3.688a48.511 48.511 0 01-4.176-3.391 59.18 59.18 0 01-2.41-2.326 34.811 34.811 0 01-2.473-2.861zM891.7 141.945a30.82 30.82 0 004.17.591 24.258 24.258 0 013.417.395 12.816 12.816 0 014.931 2.095 54.927 54.927 0 015.14 4.384c2.147 1.956 2.32 1.8 2.32 1.8s.178-.162-1.63-2.448a30.61 30.61 0 00-4.89-5.03 13.628 13.628 0 00-5.489-2.573 24.078 24.078 0 00-3.67-.492 31.556 31.556 0 01-3.908-.576 44.952 44.952 0 01-12.251-4.563 31.128 31.128 0 01-5.504-3.832c-1.07-.935-1.54-1.48-1.84-1.707-.287-.237-.338-.206-.338-.206s-.05.032.096.376a8.912 8.912 0 001.398 2.193 22.086 22.086 0 005.372 4.551 39.66 39.66 0 0012.677 5.042zM987.1 110.592a20.588 20.588 0 00-1.883-1.278c-.627-.387-1.218-.8-1.826-1.133-1.229-.641-2.351-1.322-3.469-1.804-2.198-1.056-4.154-1.827-5.814-2.467-4.792-1.831-8.364-3.119-10.974-4.26-2.607-1.138-4.276-2.041-5.391-2.644-2.182-1.288-2.278-1.177-2.278-1.177s-.096.111 1.927 1.72a37.165 37.165 0 005.232 3.182c2.58 1.326 6.158 2.796 10.858 4.726 1.619.698 3.52 1.508 5.636 2.567 1.083.488 2.148 1.156 3.33 1.782.584.325 1.143.723 1.742 1.097a19.888 19.888 0 011.797 1.223 31.843 31.843 0 012.866 2.309 26.926 26.926 0 012.28 2.19l1.858 2.064 1.556 2.095c.247.34.509.663.733 1.002l.62 1.024 1.184 1.945a37.496 37.496 0 011.76 3.71c.512 1.176.96 2.277 1.37 3.294l3.394 8.644c1.435 3.646 1.604 3.594 1.604 3.594s.202-.063-.832-3.853c-.527-1.892-1.35-4.72-2.823-8.894a99.826 99.826 0 00-1.262-3.383 36.245 36.245 0 00-1.718-3.894l-1.195-2.064-.632-1.087c-.228-.359-.495-.7-.747-1.06l-1.598-2.214c-.607-.718-1.263-1.437-1.926-2.19a26.726 26.726 0 00-2.374-2.33 31.873 31.873 0 00-3.004-2.436z" fill="#3e4147"/><path d="M825.482 178.883l.194-3.234.05-.878.015-.776.03-1.517c-.001-1 .082-1.961.14-2.895.043-.937.14-1.837.247-2.706a48.638 48.638 0 011.832-8.9 70.17 70.17 0 014.619-10.704c1.297-2.561 2.106-4.316 2.593-5.504.948-2.39.802-2.45.802-2.45s-.124-.05-1.381 2.164l-3.066 5.22a58.577 58.577 0 00-5.153 10.756 46.703 46.703 0 00-2.066 9.198 35.147 35.147 0 00-.282 2.788c-.067.961-.158 1.952-.164 2.974l-.037 1.556-.019.796-.044.713-.205 3.357a58.351 58.351 0 00.807 10.537 65.132 65.132 0 002.519 10.158c.502 1.43.94 2.769 1.452 3.971a53.845 53.845 0 001.417 3.332 65.262 65.262 0 004.44 8.249 23.722 23.722 0 002.029 2.794c.331.37.374.34.374.34s.036-.026-.167-.476c-.202-.45-.65-1.322-1.53-3.063-.861-1.75-2.18-4.361-3.827-8.41a61.922 61.922 0 01-1.27-3.322c-.463-1.194-.854-2.517-1.313-3.927a69.542 69.542 0 01-2.3-9.94 59.89 59.89 0 01-.736-10.2zM1000.241 163.743c-1.634-6.845-3.716-12.937-6.735-17.722a40.626 40.626 0 00-9.753-10.82c-4.077-3.171-7.264-5.26-9.552-6.978a86.047 86.047 0 01-2.886-2.17c-.79-.603-1.427-1.08-1.915-1.488-1.986-1.595-2.09-1.493-2.09-1.493s-.106.101 1.658 1.972c.432.478 1.014 1.03 1.752 1.71.728.694 1.63 1.493 2.745 2.41 2.196 1.875 5.326 4.133 9.233 7.33a39.953 39.953 0 019.24 10.477c2.849 4.584 4.85 10.468 6.46 17.211a157.456 157.456 0 012.951 15.73c.515 3.856.788 7.249.976 10.22.13 2.972.21 5.525.16 7.712-.052 4.375-.314 7.287-.485 9.23-.175 1.943-.269 2.92-.286 3.415-.017.494.031.504.031.504s.048.01.212-.458a24.845 24.845 0 00.85-3.345 64.144 64.144 0 001.113-9.298c.145-2.218.15-4.81.088-7.832-.12-3.02-.34-6.47-.826-10.384a149.705 149.705 0 00-2.941-15.933zM1094.486 443.9c-5.562-2.706-9.7-4.659-12.902-6.092a50.066 50.066 0 00-6.935-2.53 12.042 12.042 0 00-2.698-.487c-.399-.004-.41.054-.41.054s-.011.059.34.234c.348.182 1.055.478 2.455 1.093 1.398.615 3.49 1.553 6.573 3.086a736.061 736.061 0 0012.742 6.343c11.052 5.417 16.498 8.235 19.249 9.609 1.383.675 2.076 1.014 2.455 1.137.373.131.406.082.406.082s.032-.05-.245-.33a15.98 15.98 0 00-2.13-1.702c-2.53-1.795-7.817-5.065-18.9-10.497zM867.282 637.186a21.793 21.793 0 00-1.52-1.957c-6.024-8.26-9.231-12.24-10.875-14.202-1.652-1.956-1.771-1.868-1.771-1.868s-.116.085 1.25 2.249c1.356 2.17 4.227 6.396 10.034 14.785a23.291 23.291 0 001.332 2.083l.498.691.388.531 1.78 2.532c2.308 3.258 4.147 6.081 5.803 8.539 3.336 4.856 5.779 7.925 7.431 9.95a44.555 44.555 0 003.035 3.427c.473.458.52.42.52.42s.045-.037-.287-.603c-.33-.568-1.043-1.662-2.51-3.813-1.455-2.157-3.697-5.354-6.855-10.263-1.547-2.452-3.38-5.402-5.643-8.687l-2.61-3.814zM1094.328 633.056a19.48 19.48 0 00.901-2.175c4.203-9.329 6-14.116 6.872-16.523.854-2.413.717-2.472.717-2.472s-.13-.056-1.31 2.215c-1.195 2.26-3.375 6.883-7.79 16.072a21.188 21.188 0 00-1.1 2.069l-.34.732-.266.581-1.34 2.783a69.307 69.307 0 01-4.954 8.923 99.891 99.891 0 01-7.643 9.595c-1.722 1.945-2.59 2.918-3 3.43-.413.51-.376.552-.376.552s.042.046.579-.336a35.925 35.925 0 003.478-2.988 68.874 68.874 0 008.27-9.335 63.667 63.667 0 005.269-9.032l2.033-4.09z" fill="#3e4147"/><path d="M899.796 223.75c10.66-9.87 18.845-4.396 18.845-4.396" fill="none" stroke="#3e4147" stroke-linecap="round" stroke-linejoin="round" stroke-width="3.159"/><path d="M982.615 179.643a131.075 131.075 0 00-10.439-9.982c-1.636-1.286-1.8-1.115-1.8-1.115s-.165.17 1.131 1.786c1.303 1.612 3.974 4.738 9.761 10.644 5.811 5.894 9.195 8.403 10.96 9.51 1.788 1.09 1.929.889 1.929.889s.13-.188-1.338-1.63c-1.452-1.464-4.43-4.246-10.204-10.102z" fill="#3e4147"/><ellipse cx="647.677" cy="685.031" rx="4.888" ry="3.259" fill="#3e4147" stroke="#3e4147" stroke-linecap="round" stroke-linejoin="round" stroke-width="1.895"/><ellipse cx="636.97" cy="674.469" rx="4.888" ry="10.862" transform="rotate(-52.263 636.97 674.469)" stroke-width="1.895" stroke="#3e4147" stroke-linecap="round" stroke-linejoin="round" fill="#fcf6dc"/><ellipse cx="651.921" cy="671.321" rx="10.862" ry="4.888" transform="rotate(-77.477 651.921 671.321)" stroke-width="1.895" stroke="#3e4147" stroke-linecap="round" stroke-linejoin="round" fill="#fcf6dc"/><ellipse cx="1395.535" cy="868.777" rx="3.259" ry="4.888" transform="rotate(-59.976 1395.535 868.777)" stroke-width="1.895" stroke="#3e4147" stroke-linecap="round" stroke-linejoin="round" fill="#3e4147"/><ellipse cx="1391.549" cy="854.275" rx="4.888" ry="10.862" transform="rotate(-22.24 1391.55 854.275)" stroke-width="1.895" stroke="#3e4147" stroke-linecap="round" stroke-linejoin="round" fill="#fcf6dc"/><ellipse cx="1406.07" cy="859.03" rx="10.862" ry="4.888" transform="rotate(-47.453 1406.07 859.03)" stroke-width="1.895" stroke="#3e4147" stroke-linecap="round" stroke-linejoin="round" fill="#fcf6dc"/><path d="M894.268 332.25c2.52 13.109 16.133 30.754 23.191 35.796s12.1 12.604 15.125 25.208 19.662 27.225 22.183 31.762 6.554 11.596 6.554 11.596-4.697 30.326-2.68 42.93c-15.126 8.066-18.495 2.444-21.015.427-4.034-26.216 4.537-49.911 3.025-54.953s-10.588-12.1-14.117-19.662-8.57-13.613-9.075-11.092 4.538 43.862 0 40.837-6.571-11.069-11.091-14.62c-7.059-5.546-12.008-37.681-15.032-46.252s-3.118-33.406-2.614-40.464 4.782-8.86 5.546-1.512z" fill="#c4d7e9" stroke="#3e4147" stroke-linecap="round" stroke-linejoin="round" stroke-width="1.895"/><path d="M1014.762 298.472c-4.465-11.336-11.986-11.026-11.986-11.026s1.903 5.984 4.725 15.14-17.443 40.756-23.493 44.79-17.141 11.595-18.15 26.216c-.493 7.15-.504 17.921-.918 29.24a15.569 15.569 0 00-.099 2.5c-.72 12.06-8.057 18.676-11.082 36.825s-.376 39.845-.376 39.845l7.938-4.05s-2.52-18.653.504-30.249 8.571-18.15 10.588-27.224c1.318-5.931-.25-16.683.012-25.294.397-4.16.901-7.57 1.85-9.597a7.856 7.856 0 01.81-1.255 2.2 2.2 0 012.37-.658c3.024 0 22.182 33.274 24.199 34.787s4.033 1.512 7.562-5.042 22.183-69.574 22.183-81.17-10.083-17.14-16.637-33.778z" fill="#c4d7e9" stroke="#3e4147" stroke-linecap="round" stroke-linejoin="round" stroke-width="1.895"/><ellipse cx="943.928" cy="470.643" rx="3.277" ry="3.781" fill="#fcf6dc" stroke="#3e4147" stroke-linecap="round" stroke-linejoin="round" stroke-width="1.895"/><ellipse cx="944.726" cy="446.741" rx="3.277" ry="3.781" fill="#fcf6dc" stroke="#3e4147" stroke-linecap="round" stroke-linejoin="round" stroke-width="1.895"/><path d="M980.01 386.159c4.306 6.852 6.568 10.224 7.824 11.832 1.246 1.615 1.448 1.495 1.448 1.495s.206-.122-.636-1.983a113.974 113.974 0 00-7.034-12.357 85.602 85.602 0 00-5.37-7.778 5.992 5.992 0 00-2.53-2.043 1.974 1.974 0 00-.828-.078 1.658 1.658 0 00-.713.327 2.097 2.097 0 00-.645.894 3.607 3.607 0 00-.236 1.892c.052.27.114.273.114.273s.057.003.179-.23a13.21 13.21 0 01.78-1.49 1.205 1.205 0 01.442-.41c.16-.074.258-.073.49.048a5.826 5.826 0 011.677 1.787c1.26 1.83 2.878 4.405 5.038 7.82zM916.226 390.42c.654 9.258 1.171 13.88 1.564 16.18.388 2.303.628 2.287.628 2.287s.233-.016.318-2.348c.08-2.333.035-6.983-.62-16.255a224.987 224.987 0 00-.511-6.124c-.09-.889-.18-1.714-.288-2.496a3.01 3.01 0 01-.039-.778c.01-.08.027-.107.079-.133a1.1 1.1 0 01.498.04 4.229 4.229 0 01.694.24 10.812 10.812 0 011.244.646c.746.445 1.326.855 1.787 1.187.92.669 1.375 1.028 1.631 1.185.25.164.298.128.298.128s.048-.036-.072-.32a6.726 6.726 0 00-1.226-1.7 13.564 13.564 0 00-1.687-1.55 10.056 10.056 0 00-1.336-.884 5.375 5.375 0 00-.903-.4 2.527 2.527 0 00-1.35-.117 1.67 1.67 0 00-1.26 1.245 3.94 3.94 0 00-.066 1.42l.189 2.442.428 6.105z" fill="#3e4147"/></svg>
